<svg xmlns="http://www.w3.org/2000/svg" width="100%" height="100%" viewBox="0 0 300 300" style="display:block;"><rect width="100%" height="100%" fill="#ffffff" rx="6"/><circle cx="166.0" cy="118.0" r="7.1" fill="none" stroke="#1e293b" stroke-width="1.5"/><line x1="52.2" y1="202.1" x2="50.0" y2="182.0" stroke="#1e293b" stroke-width="2.5"/><line x1="50.0" y1="182.0" x2="66.2" y2="170.0" stroke="#1e293b" stroke-width="2.5"/><line x1="66.2" y1="170.0" x2="63.9" y2="149.9" stroke="#1e293b" stroke-width="2.5"/><line x1="63.9" y1="149.9" x2="80.2" y2="137.9" stroke="#1e293b" stroke-width="2.5"/><line x1="80.2" y1="137.9" x2="98.7" y2="146.0" stroke="#1e293b" stroke-width="2.5"/><line x1="98.7" y1="146.0" x2="115.0" y2="134.0" stroke="#1e293b" stroke-width="2.5"/><line x1="115.0" y1="134.0" x2="112.7" y2="113.9" stroke="#1e293b" stroke-width="2.5"/><line x1="112.7" y1="113.9" x2="128.9" y2="101.9" stroke="#1e293b" stroke-width="2.5"/><line x1="128.9" y1="101.9" x2="147.5" y2="109.9" stroke="#1e293b" stroke-width="2.5"/><line x1="147.5" y1="109.9" x2="163.7" y2="97.9" stroke="#1e293b" stroke-width="2.5"/><line x1="163.7" y1="97.9" x2="182.2" y2="106.0" stroke="#1e293b" stroke-width="2.5"/><line x1="182.2" y1="106.0" x2="184.5" y2="126.1" stroke="#1e293b" stroke-width="2.5"/><line x1="184.5" y1="126.1" x2="168.3" y2="138.1" stroke="#1e293b" stroke-width="2.5"/><line x1="168.3" y1="138.1" x2="149.7" y2="130.0" stroke="#1e293b" stroke-width="2.5"/><line x1="168.3" y1="138.1" x2="170.5" y2="158.2" stroke="#1e293b" stroke-width="2.5"/><line x1="170.5" y1="158.2" x2="189.1" y2="166.2" stroke="#1e293b" stroke-width="2.5"/><line x1="189.1" y1="166.2" x2="205.3" y2="154.2" stroke="#1e293b" stroke-width="2.5"/><line x1="205.3" y1="154.2" x2="223.8" y2="162.3" stroke="#1e293b" stroke-width="2.5"/><line x1="223.8" y1="162.3" x2="242.6" y2="154.9" stroke="#1e293b" stroke-width="2.5"/><line x1="242.6" y1="154.9" x2="250.0" y2="173.7" stroke="#1e293b" stroke-width="2.5"/><line x1="250.0" y1="173.7" x2="231.2" y2="181.1" stroke="#1e293b" stroke-width="2.5"/><line x1="205.3" y1="154.2" x2="203.0" y2="134.1" stroke="#1e293b" stroke-width="2.5"/><line x1="204.8" y1="136.5" x2="221.1" y2="124.5" stroke="#1e293b" stroke-width="2"/><line x1="201.3" y1="131.7" x2="217.5" y2="119.7" stroke="#1e293b" stroke-width="2"/><line x1="112.7" y1="113.9" x2="94.2" y2="105.8" stroke="#1e293b" stroke-width="2.5"/><line x1="94.2" y1="105.8" x2="77.9" y2="117.8" stroke="#1e293b" stroke-width="2.5"/><line x1="77.9" y1="117.8" x2="80.2" y2="137.9" stroke="#1e293b" stroke-width="2.5"/><line x1="149.7" y1="130.0" x2="147.5" y2="109.9" stroke="#1e293b" stroke-width="2.5"/><line x1="231.2" y1="181.1" x2="223.8" y2="162.3" stroke="#1e293b" stroke-width="2.5"/><line x1="203.0" y1="134.1" x2="184.5" y2="126.1" stroke="#1e293b" stroke-width="2.5"/><circle cx="52.2" cy="202.1" r="10" fill="white"/><text x="52.2" y="202.1" text-anchor="middle" dominant-baseline="central" fill="#3b82f6" font-size="13" font-weight="bold" font-family="ui-sans-serif,system-ui,sans-serif">N</text><circle cx="80.2" cy="137.9" r="10" fill="white"/><text x="80.2" y="137.9" text-anchor="middle" dominant-baseline="central" fill="#3b82f6" font-size="13" font-weight="bold" font-family="ui-sans-serif,system-ui,sans-serif">N</text><circle cx="128.9" cy="101.9" r="10" fill="white"/><text x="128.9" y="101.9" text-anchor="middle" dominant-baseline="central" fill="#ef4444" font-size="13" font-weight="bold" font-family="ui-sans-serif,system-ui,sans-serif">O</text><circle cx="205.3" cy="154.2" r="10" fill="white"/><text x="205.3" y="154.2" text-anchor="middle" dominant-baseline="central" fill="#3b82f6" font-size="13" font-weight="bold" font-family="ui-sans-serif,system-ui,sans-serif">N</text><circle cx="219.3" cy="122.1" r="10" fill="white"/><text x="219.3" y="122.1" text-anchor="middle" dominant-baseline="central" fill="#ef4444" font-size="13" font-weight="bold" font-family="ui-sans-serif,system-ui,sans-serif">O</text></svg>