<svg xmlns="http://www.w3.org/2000/svg" width="100%" height="100%" viewBox="0 0 300 300" style="display:block;"><rect width="100%" height="100%" fill="#ffffff" rx="6"/><circle cx="86.9" cy="165.0" r="6.1" fill="none" stroke="#1e293b" stroke-width="1.5"/><circle cx="163.7" cy="143.9" r="6.1" fill="none" stroke="#1e293b" stroke-width="1.5"/><line x1="50.0" y1="137.7" x2="67.3" y2="136.3" stroke="#1e293b" stroke-width="2.5"/><line x1="67.3" y1="136.3" x2="77.1" y2="150.7" stroke="#1e293b" stroke-width="2.5"/><line x1="77.1" y1="150.7" x2="69.6" y2="166.4" stroke="#1e293b" stroke-width="2.5"/><line x1="69.6" y1="166.4" x2="79.5" y2="180.7" stroke="#1e293b" stroke-width="2.5"/><line x1="79.5" y1="180.7" x2="96.8" y2="179.3" stroke="#1e293b" stroke-width="2.5"/><line x1="96.8" y1="179.3" x2="104.3" y2="163.7" stroke="#1e293b" stroke-width="2.5"/><line x1="104.3" y1="163.7" x2="121.6" y2="162.3" stroke="#1e293b" stroke-width="2.5"/><line x1="121.6" y1="162.3" x2="129.1" y2="146.6" stroke="#1e293b" stroke-width="2.5"/><line x1="129.1" y1="146.6" x2="146.4" y2="145.3" stroke="#1e293b" stroke-width="2.5"/><line x1="146.4" y1="145.3" x2="153.9" y2="129.6" stroke="#1e293b" stroke-width="2.5"/><line x1="153.9" y1="129.6" x2="171.2" y2="128.3" stroke="#1e293b" stroke-width="2.5"/><line x1="171.2" y1="128.3" x2="181.1" y2="142.6" stroke="#1e293b" stroke-width="2.5"/><line x1="181.1" y1="142.6" x2="173.6" y2="158.3" stroke="#1e293b" stroke-width="2.5"/><line x1="173.6" y1="158.3" x2="156.2" y2="159.6" stroke="#1e293b" stroke-width="2.5"/><line x1="173.6" y1="158.3" x2="183.4" y2="172.6" stroke="#1e293b" stroke-width="2.5"/><line x1="183.4" y1="172.6" x2="200.7" y2="171.2" stroke="#1e293b" stroke-width="2.5"/><line x1="200.7" y1="171.2" x2="208.2" y2="155.6" stroke="#1e293b" stroke-width="2.5"/><line x1="208.2" y1="155.6" x2="225.5" y2="154.2" stroke="#1e293b" stroke-width="2.5"/><line x1="225.5" y1="154.2" x2="236.8" y2="141.0" stroke="#1e293b" stroke-width="2.5"/><line x1="236.8" y1="141.0" x2="250.0" y2="152.3" stroke="#1e293b" stroke-width="2.5"/><line x1="250.0" y1="152.3" x2="238.7" y2="165.5" stroke="#1e293b" stroke-width="2.5"/><line x1="208.2" y1="155.6" x2="198.4" y2="141.2" stroke="#1e293b" stroke-width="2.5"/><line x1="201.1" y1="142.5" x2="208.6" y2="126.8" stroke="#1e293b" stroke-width="2"/><line x1="195.7" y1="139.9" x2="203.2" y2="124.3" stroke="#1e293b" stroke-width="2"/><line x1="104.3" y1="163.7" x2="94.4" y2="149.3" stroke="#1e293b" stroke-width="2.5"/><line x1="94.4" y1="149.3" x2="101.9" y2="133.6" stroke="#1e293b" stroke-width="2.5"/><line x1="101.9" y1="133.6" x2="92.1" y2="119.3" stroke="#1e293b" stroke-width="2.5"/><line x1="94.4" y1="149.3" x2="77.1" y2="150.7" stroke="#1e293b" stroke-width="2.5"/><line x1="156.2" y1="159.6" x2="146.4" y2="145.3" stroke="#1e293b" stroke-width="2.5"/><line x1="238.7" y1="165.5" x2="225.5" y2="154.2" stroke="#1e293b" stroke-width="2.5"/><line x1="198.4" y1="141.2" x2="181.1" y2="142.6" stroke="#1e293b" stroke-width="2.5"/><circle cx="67.3" cy="136.3" r="10" fill="white"/><text x="67.3" y="136.3" text-anchor="middle" dominant-baseline="central" fill="#ef4444" font-size="13" font-weight="bold" font-family="ui-sans-serif,system-ui,sans-serif">O</text><circle cx="129.1" cy="146.6" r="10" fill="white"/><text x="129.1" y="146.6" text-anchor="middle" dominant-baseline="central" fill="#ef4444" font-size="13" font-weight="bold" font-family="ui-sans-serif,system-ui,sans-serif">O</text><circle cx="208.2" cy="155.6" r="10" fill="white"/><text x="208.2" y="155.6" text-anchor="middle" dominant-baseline="central" fill="#3b82f6" font-size="13" font-weight="bold" font-family="ui-sans-serif,system-ui,sans-serif">N</text><circle cx="205.9" cy="125.6" r="10" fill="white"/><text x="205.9" y="125.6" text-anchor="middle" dominant-baseline="central" fill="#ef4444" font-size="13" font-weight="bold" font-family="ui-sans-serif,system-ui,sans-serif">O</text><circle cx="101.9" cy="133.6" r="10" fill="white"/><text x="101.9" y="133.6" text-anchor="middle" dominant-baseline="central" fill="#ef4444" font-size="13" font-weight="bold" font-family="ui-sans-serif,system-ui,sans-serif">O</text></svg>