<svg xmlns="http://www.w3.org/2000/svg" width="100%" height="100%" viewBox="0 0 300 300" style="display:block;"><rect width="100%" height="100%" fill="#ffffff" rx="6"/><circle cx="80.4" cy="166.8" r="6.2" fill="none" stroke="#1e293b" stroke-width="1.5"/><circle cx="166.2" cy="133.2" r="6.2" fill="none" stroke="#1e293b" stroke-width="1.5"/><line x1="50.0" y1="131.1" x2="67.5" y2="133.7" stroke="#1e293b" stroke-width="2.5"/><line x1="67.5" y1="133.7" x2="73.9" y2="150.3" stroke="#1e293b" stroke-width="2.5"/><line x1="73.9" y1="150.3" x2="62.9" y2="164.1" stroke="#1e293b" stroke-width="2.5"/><line x1="62.9" y1="164.1" x2="69.3" y2="180.6" stroke="#1e293b" stroke-width="2.5"/><line x1="69.3" y1="180.6" x2="86.9" y2="183.3" stroke="#1e293b" stroke-width="2.5"/><line x1="86.9" y1="183.3" x2="97.9" y2="169.4" stroke="#1e293b" stroke-width="2.5"/><line x1="97.9" y1="169.4" x2="91.5" y2="152.9" stroke="#1e293b" stroke-width="2.5"/><line x1="91.5" y1="152.9" x2="102.5" y2="139.1" stroke="#1e293b" stroke-width="2.5"/><line x1="105.3" y1="138.0" x2="98.9" y2="121.5" stroke="#1e293b" stroke-width="2"/><line x1="99.8" y1="140.2" x2="93.3" y2="123.7" stroke="#1e293b" stroke-width="2"/><line x1="102.5" y1="139.1" x2="120.1" y2="141.7" stroke="#1e293b" stroke-width="2.5"/><line x1="120.1" y1="141.7" x2="131.2" y2="127.9" stroke="#1e293b" stroke-width="2.5"/><line x1="131.2" y1="127.9" x2="148.7" y2="130.6" stroke="#1e293b" stroke-width="2.5"/><line x1="148.7" y1="130.6" x2="159.8" y2="116.7" stroke="#1e293b" stroke-width="2.5"/><line x1="159.8" y1="116.7" x2="177.3" y2="119.4" stroke="#1e293b" stroke-width="2.5"/><line x1="177.3" y1="119.4" x2="183.7" y2="135.9" stroke="#1e293b" stroke-width="2.5"/><line x1="183.7" y1="135.9" x2="172.7" y2="149.7" stroke="#1e293b" stroke-width="2.5"/><line x1="172.7" y1="149.7" x2="155.1" y2="147.1" stroke="#1e293b" stroke-width="2.5"/><line x1="172.7" y1="149.7" x2="179.1" y2="166.3" stroke="#1e293b" stroke-width="2.5"/><line x1="179.1" y1="166.3" x2="196.6" y2="168.9" stroke="#1e293b" stroke-width="2.5"/><line x1="196.6" y1="168.9" x2="207.7" y2="155.1" stroke="#1e293b" stroke-width="2.5"/><line x1="207.7" y1="155.1" x2="225.3" y2="157.7" stroke="#1e293b" stroke-width="2.5"/><line x1="225.3" y1="157.7" x2="239.5" y2="147.2" stroke="#1e293b" stroke-width="2.5"/><line x1="239.5" y1="147.2" x2="250.0" y2="161.5" stroke="#1e293b" stroke-width="2.5"/><line x1="250.0" y1="161.5" x2="235.8" y2="172.0" stroke="#1e293b" stroke-width="2.5"/><line x1="207.7" y1="155.1" x2="201.3" y2="138.6" stroke="#1e293b" stroke-width="2.5"/><line x1="203.6" y1="140.4" x2="214.7" y2="126.6" stroke="#1e293b" stroke-width="2"/><line x1="198.9" y1="136.7" x2="210.0" y2="122.8" stroke="#1e293b" stroke-width="2"/><line x1="91.5" y1="152.9" x2="73.9" y2="150.3" stroke="#1e293b" stroke-width="2.5"/><line x1="155.1" y1="147.1" x2="148.7" y2="130.6" stroke="#1e293b" stroke-width="2.5"/><line x1="235.8" y1="172.0" x2="225.3" y2="157.7" stroke="#1e293b" stroke-width="2.5"/><line x1="201.3" y1="138.6" x2="183.7" y2="135.9" stroke="#1e293b" stroke-width="2.5"/><circle cx="67.5" cy="133.7" r="10" fill="white"/><text x="67.5" y="133.7" text-anchor="middle" dominant-baseline="central" fill="#ef4444" font-size="13" font-weight="bold" font-family="ui-sans-serif,system-ui,sans-serif">O</text><circle cx="96.1" cy="122.6" r="10" fill="white"/><text x="96.1" y="122.6" text-anchor="middle" dominant-baseline="central" fill="#ef4444" font-size="13" font-weight="bold" font-family="ui-sans-serif,system-ui,sans-serif">O</text><circle cx="131.2" cy="127.9" r="10" fill="white"/><text x="131.2" y="127.9" text-anchor="middle" dominant-baseline="central" fill="#ef4444" font-size="13" font-weight="bold" font-family="ui-sans-serif,system-ui,sans-serif">O</text><circle cx="207.7" cy="155.1" r="10" fill="white"/><text x="207.7" y="155.1" text-anchor="middle" dominant-baseline="central" fill="#3b82f6" font-size="13" font-weight="bold" font-family="ui-sans-serif,system-ui,sans-serif">N</text><circle cx="212.3" cy="124.7" r="10" fill="white"/><text x="212.3" y="124.7" text-anchor="middle" dominant-baseline="central" fill="#ef4444" font-size="13" font-weight="bold" font-family="ui-sans-serif,system-ui,sans-serif">O</text></svg>