<svg xmlns="http://www.w3.org/2000/svg" width="100%" height="100%" viewBox="0 0 300 300" style="display:block;"><rect width="100%" height="100%" fill="#ffffff" rx="6"/><circle cx="144.0" cy="132.1" r="7.8" fill="none" stroke="#1e293b" stroke-width="1.5"/><line x1="50.0" y1="191.9" x2="68.8" y2="179.9" stroke="#1e293b" stroke-width="2.5"/><line x1="68.8" y1="179.9" x2="67.8" y2="157.6" stroke="#1e293b" stroke-width="2.5"/><line x1="67.8" y1="157.6" x2="86.6" y2="145.7" stroke="#1e293b" stroke-width="2.5"/><line x1="85.2" y1="148.3" x2="105.0" y2="158.6" stroke="#1e293b" stroke-width="2"/><line x1="88.0" y1="143.0" x2="107.8" y2="153.3" stroke="#1e293b" stroke-width="2"/><line x1="86.6" y1="145.7" x2="85.6" y2="123.4" stroke="#1e293b" stroke-width="2.5"/><line x1="85.6" y1="123.4" x2="65.9" y2="113.1" stroke="#1e293b" stroke-width="2.5"/><line x1="85.6" y1="123.4" x2="104.5" y2="111.4" stroke="#1e293b" stroke-width="2.5"/><line x1="104.5" y1="111.4" x2="124.2" y2="121.7" stroke="#1e293b" stroke-width="2.5"/><line x1="124.2" y1="121.7" x2="125.2" y2="144.0" stroke="#1e293b" stroke-width="2.5"/><line x1="125.2" y1="144.0" x2="144.9" y2="154.3" stroke="#1e293b" stroke-width="2.5"/><line x1="144.9" y1="154.3" x2="163.8" y2="142.4" stroke="#1e293b" stroke-width="2.5"/><line x1="163.8" y1="142.4" x2="162.8" y2="120.1" stroke="#1e293b" stroke-width="2.5"/><line x1="162.8" y1="120.1" x2="143.0" y2="109.8" stroke="#1e293b" stroke-width="2.5"/><line x1="162.8" y1="120.1" x2="181.6" y2="108.1" stroke="#1e293b" stroke-width="2.5"/><line x1="181.6" y1="108.1" x2="201.4" y2="118.4" stroke="#1e293b" stroke-width="2.5"/><line x1="201.4" y1="118.4" x2="202.3" y2="140.7" stroke="#1e293b" stroke-width="2.5"/><line x1="202.3" y1="140.7" x2="222.1" y2="151.0" stroke="#1e293b" stroke-width="2.5"/><line x1="222.1" y1="151.0" x2="243.3" y2="144.3" stroke="#1e293b" stroke-width="2.5"/><line x1="243.3" y1="144.3" x2="250.0" y2="165.6" stroke="#1e293b" stroke-width="2.5"/><line x1="250.0" y1="165.6" x2="228.8" y2="172.3" stroke="#1e293b" stroke-width="2.5"/><line x1="202.3" y1="140.7" x2="183.5" y2="152.7" stroke="#1e293b" stroke-width="2.5"/><line x1="180.5" y1="152.8" x2="181.5" y2="175.1" stroke="#1e293b" stroke-width="2"/><line x1="186.5" y1="152.5" x2="187.5" y2="174.8" stroke="#1e293b" stroke-width="2"/><line x1="143.0" y1="109.8" x2="124.2" y2="121.7" stroke="#1e293b" stroke-width="2.5"/><line x1="228.8" y1="172.3" x2="222.1" y2="151.0" stroke="#1e293b" stroke-width="2.5"/><line x1="183.5" y1="152.7" x2="163.8" y2="142.4" stroke="#1e293b" stroke-width="2.5"/><circle cx="106.4" cy="156.0" r="10" fill="white"/><text x="106.4" y="156.0" text-anchor="middle" dominant-baseline="central" fill="#ef4444" font-size="13" font-weight="bold" font-family="ui-sans-serif,system-ui,sans-serif">O</text><circle cx="85.6" cy="123.4" r="10" fill="white"/><text x="85.6" y="123.4" text-anchor="middle" dominant-baseline="central" fill="#3b82f6" font-size="13" font-weight="bold" font-family="ui-sans-serif,system-ui,sans-serif">N</text><circle cx="202.3" cy="140.7" r="10" fill="white"/><text x="202.3" y="140.7" text-anchor="middle" dominant-baseline="central" fill="#3b82f6" font-size="13" font-weight="bold" font-family="ui-sans-serif,system-ui,sans-serif">N</text><circle cx="184.5" cy="174.9" r="10" fill="white"/><text x="184.5" y="174.9" text-anchor="middle" dominant-baseline="central" fill="#ef4444" font-size="13" font-weight="bold" font-family="ui-sans-serif,system-ui,sans-serif">O</text></svg>