<svg xmlns="http://www.w3.org/2000/svg" width="100%" height="100%" viewBox="0 0 300 300" style="display:block;"><rect width="100%" height="100%" fill="#ffffff" rx="6"/><circle cx="151.7" cy="141.0" r="7.0" fill="none" stroke="#1e293b" stroke-width="1.5"/><line x1="113.5" y1="173.5" x2="103.8" y2="155.9" stroke="#1e293b" stroke-width="2"/><line x1="108.2" y1="176.4" x2="98.5" y2="158.8" stroke="#1e293b" stroke-width="2"/><line x1="101.1" y1="157.4" x2="111.5" y2="140.2" stroke="#1e293b" stroke-width="2.5"/><line x1="111.5" y1="140.2" x2="131.6" y2="140.6" stroke="#1e293b" stroke-width="2.5"/><line x1="131.6" y1="140.6" x2="142.0" y2="123.4" stroke="#1e293b" stroke-width="2.5"/><line x1="142.0" y1="123.4" x2="162.1" y2="123.8" stroke="#1e293b" stroke-width="2.5"/><line x1="162.1" y1="123.8" x2="171.8" y2="141.4" stroke="#1e293b" stroke-width="2.5"/><line x1="171.8" y1="141.4" x2="161.4" y2="158.6" stroke="#1e293b" stroke-width="2.5"/><line x1="161.4" y1="158.6" x2="141.3" y2="158.2" stroke="#1e293b" stroke-width="2.5"/><line x1="161.4" y1="158.6" x2="171.1" y2="176.2" stroke="#1e293b" stroke-width="2.5"/><line x1="171.1" y1="176.2" x2="191.2" y2="176.6" stroke="#1e293b" stroke-width="2.5"/><line x1="191.2" y1="176.6" x2="201.6" y2="159.4" stroke="#1e293b" stroke-width="2.5"/><line x1="201.6" y1="159.4" x2="221.6" y2="159.8" stroke="#1e293b" stroke-width="2.5"/><line x1="221.6" y1="159.8" x2="236.1" y2="145.9" stroke="#1e293b" stroke-width="2.5"/><line x1="236.1" y1="145.9" x2="250.0" y2="160.4" stroke="#1e293b" stroke-width="2.5"/><line x1="250.0" y1="160.4" x2="235.6" y2="174.3" stroke="#1e293b" stroke-width="2.5"/><line x1="201.6" y1="159.4" x2="191.9" y2="141.8" stroke="#1e293b" stroke-width="2.5"/><line x1="194.4" y1="143.4" x2="204.8" y2="126.2" stroke="#1e293b" stroke-width="2"/><line x1="189.3" y1="140.3" x2="199.7" y2="123.1" stroke="#1e293b" stroke-width="2"/><line x1="101.1" y1="157.4" x2="81.1" y2="157.0" stroke="#1e293b" stroke-width="2.5"/><line x1="81.1" y1="157.0" x2="69.6" y2="140.5" stroke="#1e293b" stroke-width="2.5"/><line x1="69.6" y1="140.5" x2="50.4" y2="146.3" stroke="#1e293b" stroke-width="2.5"/><line x1="50.4" y1="146.3" x2="50.0" y2="166.4" stroke="#1e293b" stroke-width="2.5"/><line x1="50.0" y1="166.4" x2="68.9" y2="173.0" stroke="#1e293b" stroke-width="2.5"/><line x1="141.3" y1="158.2" x2="131.6" y2="140.6" stroke="#1e293b" stroke-width="2.5"/><line x1="235.6" y1="174.3" x2="221.6" y2="159.8" stroke="#1e293b" stroke-width="2.5"/><line x1="68.9" y1="173.0" x2="81.1" y2="157.0" stroke="#1e293b" stroke-width="2.5"/><line x1="191.9" y1="141.8" x2="171.8" y2="141.4" stroke="#1e293b" stroke-width="2.5"/><circle cx="110.8" cy="175.0" r="10" fill="white"/><text x="110.8" y="175.0" text-anchor="middle" dominant-baseline="central" fill="#ef4444" font-size="13" font-weight="bold" font-family="ui-sans-serif,system-ui,sans-serif">O</text><circle cx="111.5" cy="140.2" r="10" fill="white"/><text x="111.5" y="140.2" text-anchor="middle" dominant-baseline="central" fill="#3b82f6" font-size="13" font-weight="bold" font-family="ui-sans-serif,system-ui,sans-serif">N</text><circle cx="201.6" cy="159.4" r="10" fill="white"/><text x="201.6" y="159.4" text-anchor="middle" dominant-baseline="central" fill="#3b82f6" font-size="13" font-weight="bold" font-family="ui-sans-serif,system-ui,sans-serif">N</text><circle cx="202.3" cy="124.6" r="10" fill="white"/><text x="202.3" y="124.6" text-anchor="middle" dominant-baseline="central" fill="#ef4444" font-size="13" font-weight="bold" font-family="ui-sans-serif,system-ui,sans-serif">O</text></svg>