<svg xmlns="http://www.w3.org/2000/svg" width="100%" height="100%" viewBox="0 0 300 300" style="display:block;"><rect width="100%" height="100%" fill="#ffffff" rx="6"/><circle cx="166.8" cy="148.9" r="5.9" fill="none" stroke="#1e293b" stroke-width="1.5"/><line x1="50.0" y1="160.8" x2="66.1" y2="165.4" stroke="#1e293b" stroke-width="2.5"/><line x1="66.1" y1="165.4" x2="78.1" y2="153.8" stroke="#1e293b" stroke-width="2.5"/><line x1="78.1" y1="153.8" x2="74.1" y2="137.5" stroke="#1e293b" stroke-width="2.5"/><line x1="74.1" y1="137.5" x2="58.0" y2="132.9" stroke="#1e293b" stroke-width="2.5"/><line x1="78.1" y1="153.8" x2="94.3" y2="158.4" stroke="#1e293b" stroke-width="2.5"/><line x1="94.3" y1="158.4" x2="106.3" y2="146.7" stroke="#1e293b" stroke-width="2.5"/><line x1="106.3" y1="146.7" x2="122.5" y2="151.3" stroke="#1e293b" stroke-width="2.5"/><line x1="119.6" y1="152.1" x2="123.6" y2="168.3" stroke="#1e293b" stroke-width="2"/><line x1="125.4" y1="150.6" x2="129.4" y2="166.9" stroke="#1e293b" stroke-width="2"/><line x1="122.5" y1="151.3" x2="134.5" y2="139.7" stroke="#1e293b" stroke-width="2.5"/><line x1="134.5" y1="139.7" x2="150.7" y2="144.3" stroke="#1e293b" stroke-width="2.5"/><line x1="150.7" y1="144.3" x2="154.7" y2="160.6" stroke="#1e293b" stroke-width="2.5"/><line x1="154.7" y1="160.6" x2="170.9" y2="165.2" stroke="#1e293b" stroke-width="2.5"/><line x1="170.9" y1="165.2" x2="182.9" y2="153.5" stroke="#1e293b" stroke-width="2.5"/><line x1="182.9" y1="153.5" x2="178.8" y2="137.2" stroke="#1e293b" stroke-width="2.5"/><line x1="178.8" y1="137.2" x2="162.7" y2="132.6" stroke="#1e293b" stroke-width="2.5"/><line x1="178.8" y1="137.2" x2="190.9" y2="125.6" stroke="#1e293b" stroke-width="2.5"/><line x1="190.9" y1="125.6" x2="207.0" y2="130.2" stroke="#1e293b" stroke-width="2.5"/><line x1="207.0" y1="130.2" x2="211.1" y2="146.5" stroke="#1e293b" stroke-width="2.5"/><line x1="211.1" y1="146.5" x2="227.2" y2="151.1" stroke="#1e293b" stroke-width="2.5"/><line x1="227.2" y1="151.1" x2="241.9" y2="143.0" stroke="#1e293b" stroke-width="2.5"/><line x1="241.9" y1="143.0" x2="250.0" y2="157.6" stroke="#1e293b" stroke-width="2.5"/><line x1="250.0" y1="157.6" x2="235.4" y2="165.8" stroke="#1e293b" stroke-width="2.5"/><line x1="211.1" y1="146.5" x2="199.0" y2="158.1" stroke="#1e293b" stroke-width="2.5"/><line x1="196.1" y1="158.9" x2="200.2" y2="175.1" stroke="#1e293b" stroke-width="2"/><line x1="202.0" y1="157.4" x2="206.0" y2="173.7" stroke="#1e293b" stroke-width="2"/><line x1="162.7" y1="132.6" x2="150.7" y2="144.3" stroke="#1e293b" stroke-width="2.5"/><line x1="235.4" y1="165.8" x2="227.2" y2="151.1" stroke="#1e293b" stroke-width="2.5"/><line x1="199.0" y1="158.1" x2="182.9" y2="153.5" stroke="#1e293b" stroke-width="2.5"/><circle cx="78.1" cy="153.8" r="10" fill="white"/><text x="78.1" y="153.8" text-anchor="middle" dominant-baseline="central" fill="#3b82f6" font-size="13" font-weight="bold" font-family="ui-sans-serif,system-ui,sans-serif">N</text><circle cx="126.5" cy="167.6" r="10" fill="white"/><text x="126.5" y="167.6" text-anchor="middle" dominant-baseline="central" fill="#ef4444" font-size="13" font-weight="bold" font-family="ui-sans-serif,system-ui,sans-serif">O</text><circle cx="134.5" cy="139.7" r="10" fill="white"/><text x="134.5" y="139.7" text-anchor="middle" dominant-baseline="central" fill="#3b82f6" font-size="13" font-weight="bold" font-family="ui-sans-serif,system-ui,sans-serif">N</text><circle cx="211.1" cy="146.5" r="10" fill="white"/><text x="211.1" y="146.5" text-anchor="middle" dominant-baseline="central" fill="#3b82f6" font-size="13" font-weight="bold" font-family="ui-sans-serif,system-ui,sans-serif">N</text><circle cx="203.1" cy="174.4" r="10" fill="white"/><text x="203.1" y="174.4" text-anchor="middle" dominant-baseline="central" fill="#ef4444" font-size="13" font-weight="bold" font-family="ui-sans-serif,system-ui,sans-serif">O</text></svg>