<svg xmlns="http://www.w3.org/2000/svg" width="100%" height="100%" viewBox="0 0 300 300" style="display:block;"><rect width="100%" height="100%" fill="#ffffff" rx="6"/><circle cx="168.3" cy="149.5" r="5.7" fill="none" stroke="#1e293b" stroke-width="1.5"/><line x1="70.5" y1="169.8" x2="81.9" y2="157.9" stroke="#1e293b" stroke-width="2.5"/><line x1="81.9" y1="157.9" x2="77.2" y2="142.1" stroke="#1e293b" stroke-width="2.5"/><line x1="77.2" y1="142.1" x2="61.3" y2="138.3" stroke="#1e293b" stroke-width="2.5"/><line x1="61.3" y1="138.3" x2="56.6" y2="122.5" stroke="#1e293b" stroke-width="2.5"/><line x1="59.1" y1="136.2" x2="47.8" y2="148.1" stroke="#1e293b" stroke-width="2"/><line x1="63.5" y1="140.3" x2="52.1" y2="152.2" stroke="#1e293b" stroke-width="2"/><line x1="81.9" y1="157.9" x2="97.8" y2="161.7" stroke="#1e293b" stroke-width="2.5"/><line x1="94.9" y1="162.6" x2="99.6" y2="178.3" stroke="#1e293b" stroke-width="2"/><line x1="100.7" y1="160.9" x2="105.3" y2="176.6" stroke="#1e293b" stroke-width="2"/><line x1="97.8" y1="161.7" x2="109.1" y2="149.8" stroke="#1e293b" stroke-width="2.5"/><line x1="109.1" y1="149.8" x2="125.1" y2="153.7" stroke="#1e293b" stroke-width="2.5"/><line x1="125.1" y1="153.7" x2="136.4" y2="141.8" stroke="#1e293b" stroke-width="2.5"/><line x1="136.4" y1="141.8" x2="152.4" y2="145.7" stroke="#1e293b" stroke-width="2.5"/><line x1="152.4" y1="145.7" x2="157.0" y2="161.4" stroke="#1e293b" stroke-width="2.5"/><line x1="157.0" y1="161.4" x2="172.9" y2="165.3" stroke="#1e293b" stroke-width="2.5"/><line x1="172.9" y1="165.3" x2="184.3" y2="153.4" stroke="#1e293b" stroke-width="2.5"/><line x1="184.3" y1="153.4" x2="179.6" y2="137.7" stroke="#1e293b" stroke-width="2.5"/><line x1="179.6" y1="137.7" x2="163.7" y2="133.8" stroke="#1e293b" stroke-width="2.5"/><line x1="179.6" y1="137.7" x2="190.9" y2="125.8" stroke="#1e293b" stroke-width="2.5"/><line x1="190.9" y1="125.8" x2="206.9" y2="129.6" stroke="#1e293b" stroke-width="2.5"/><line x1="206.9" y1="129.6" x2="211.5" y2="145.4" stroke="#1e293b" stroke-width="2.5"/><line x1="211.5" y1="145.4" x2="227.5" y2="149.2" stroke="#1e293b" stroke-width="2.5"/><line x1="227.5" y1="149.2" x2="241.5" y2="140.7" stroke="#1e293b" stroke-width="2.5"/><line x1="241.5" y1="140.7" x2="250.0" y2="154.7" stroke="#1e293b" stroke-width="2.5"/><line x1="250.0" y1="154.7" x2="236.0" y2="163.2" stroke="#1e293b" stroke-width="2.5"/><line x1="211.5" y1="145.4" x2="200.2" y2="157.3" stroke="#1e293b" stroke-width="2.5"/><line x1="197.3" y1="158.1" x2="202.0" y2="173.9" stroke="#1e293b" stroke-width="2"/><line x1="203.1" y1="156.4" x2="207.7" y2="172.2" stroke="#1e293b" stroke-width="2"/><line x1="163.7" y1="133.8" x2="152.4" y2="145.7" stroke="#1e293b" stroke-width="2.5"/><line x1="236.0" y1="163.2" x2="227.5" y2="149.2" stroke="#1e293b" stroke-width="2.5"/><line x1="200.2" y1="157.3" x2="184.3" y2="153.4" stroke="#1e293b" stroke-width="2.5"/><circle cx="81.9" cy="157.9" r="10" fill="white"/><text x="81.9" y="157.9" text-anchor="middle" dominant-baseline="central" fill="#3b82f6" font-size="13" font-weight="bold" font-family="ui-sans-serif,system-ui,sans-serif">N</text><circle cx="56.6" cy="122.5" r="10" fill="white"/><text x="56.6" y="122.5" text-anchor="middle" dominant-baseline="central" fill="#3b82f6" font-size="13" font-weight="bold" font-family="ui-sans-serif,system-ui,sans-serif">N</text><circle cx="50.0" cy="150.2" r="10" fill="white"/><text x="50.0" y="150.2" text-anchor="middle" dominant-baseline="central" fill="#ef4444" font-size="13" font-weight="bold" font-family="ui-sans-serif,system-ui,sans-serif">O</text><circle cx="102.4" cy="177.5" r="10" fill="white"/><text x="102.4" y="177.5" text-anchor="middle" dominant-baseline="central" fill="#ef4444" font-size="13" font-weight="bold" font-family="ui-sans-serif,system-ui,sans-serif">O</text><circle cx="136.4" cy="141.8" r="10" fill="white"/><text x="136.4" y="141.8" text-anchor="middle" dominant-baseline="central" fill="#ef4444" font-size="13" font-weight="bold" font-family="ui-sans-serif,system-ui,sans-serif">O</text><circle cx="211.5" cy="145.4" r="10" fill="white"/><text x="211.5" y="145.4" text-anchor="middle" dominant-baseline="central" fill="#3b82f6" font-size="13" font-weight="bold" font-family="ui-sans-serif,system-ui,sans-serif">N</text><circle cx="204.8" cy="173.0" r="10" fill="white"/><text x="204.8" y="173.0" text-anchor="middle" dominant-baseline="central" fill="#ef4444" font-size="13" font-weight="bold" font-family="ui-sans-serif,system-ui,sans-serif">O</text></svg>