<svg xmlns="http://www.w3.org/2000/svg" width="100%" height="100%" viewBox="0 0 300 300" style="display:block;"><rect width="100%" height="100%" fill="#ffffff" rx="6"/><circle cx="131.1" cy="126.0" r="7.1" fill="none" stroke="#1e293b" stroke-width="1.5"/><circle cx="70.3" cy="127.1" r="7.1" fill="none" stroke="#1e293b" stroke-width="1.5"/><circle cx="161.3" cy="107.9" r="7.1" fill="none" stroke="#1e293b" stroke-width="1.5"/><line x1="183.4" y1="213.1" x2="173.0" y2="195.7" stroke="#1e293b" stroke-width="2.5"/><line x1="173.0" y1="195.7" x2="182.8" y2="177.9" stroke="#1e293b" stroke-width="2.5"/><line x1="182.8" y1="177.9" x2="172.3" y2="160.5" stroke="#1e293b" stroke-width="2.5"/><line x1="172.3" y1="160.5" x2="152.1" y2="160.8" stroke="#1e293b" stroke-width="2.5"/><line x1="152.1" y1="160.8" x2="141.6" y2="143.4" stroke="#1e293b" stroke-width="2.5"/><line x1="141.6" y1="143.4" x2="121.3" y2="143.8" stroke="#1e293b" stroke-width="2.5"/><line x1="121.3" y1="143.8" x2="110.9" y2="126.4" stroke="#1e293b" stroke-width="2.5"/><line x1="110.9" y1="126.4" x2="90.6" y2="126.7" stroke="#1e293b" stroke-width="2.5"/><line x1="90.6" y1="126.7" x2="80.7" y2="144.5" stroke="#1e293b" stroke-width="2.5"/><line x1="80.7" y1="144.5" x2="60.4" y2="144.8" stroke="#1e293b" stroke-width="2.5"/><line x1="60.4" y1="144.8" x2="50.0" y2="127.4" stroke="#1e293b" stroke-width="2.5"/><line x1="50.0" y1="127.4" x2="59.8" y2="109.7" stroke="#1e293b" stroke-width="2.5"/><line x1="59.8" y1="109.7" x2="80.1" y2="109.3" stroke="#1e293b" stroke-width="2.5"/><line x1="110.9" y1="126.4" x2="120.7" y2="108.6" stroke="#1e293b" stroke-width="2.5"/><line x1="120.7" y1="108.6" x2="141.0" y2="108.3" stroke="#1e293b" stroke-width="2.5"/><line x1="141.0" y1="108.3" x2="150.8" y2="90.5" stroke="#1e293b" stroke-width="2.5"/><line x1="150.8" y1="90.5" x2="171.1" y2="90.2" stroke="#1e293b" stroke-width="2.5"/><line x1="171.1" y1="90.2" x2="181.6" y2="107.6" stroke="#1e293b" stroke-width="2.5"/><line x1="181.6" y1="107.6" x2="201.9" y2="107.2" stroke="#1e293b" stroke-width="2.5"/><line x1="204.9" y1="107.2" x2="204.5" y2="86.9" stroke="#1e293b" stroke-width="2"/><line x1="198.9" y1="107.3" x2="198.5" y2="87.0" stroke="#1e293b" stroke-width="2"/><line x1="198.9" y1="107.3" x2="199.2" y2="127.6" stroke="#1e293b" stroke-width="2"/><line x1="204.9" y1="107.2" x2="205.2" y2="127.5" stroke="#1e293b" stroke-width="2"/><line x1="201.9" y1="107.2" x2="222.2" y2="106.9" stroke="#1e293b" stroke-width="2.5"/><line x1="222.2" y1="106.9" x2="232.6" y2="124.3" stroke="#1e293b" stroke-width="2.5"/><line x1="232.6" y1="124.3" x2="250.0" y2="113.8" stroke="#1e293b" stroke-width="2.5"/><line x1="232.6" y1="124.3" x2="215.2" y2="134.7" stroke="#1e293b" stroke-width="2.5"/><line x1="232.6" y1="124.3" x2="243.1" y2="141.7" stroke="#1e293b" stroke-width="2.5"/><line x1="181.6" y1="107.6" x2="171.7" y2="125.3" stroke="#1e293b" stroke-width="2.5"/><line x1="171.7" y1="125.3" x2="151.4" y2="125.7" stroke="#1e293b" stroke-width="2.5"/><line x1="152.1" y1="160.8" x2="142.2" y2="178.6" stroke="#1e293b" stroke-width="2.5"/><line x1="142.2" y1="178.6" x2="152.7" y2="196.0" stroke="#1e293b" stroke-width="2.5"/><line x1="152.7" y1="196.0" x2="173.0" y2="195.7" stroke="#1e293b" stroke-width="2.5"/><line x1="151.4" y1="125.7" x2="141.6" y2="143.4" stroke="#1e293b" stroke-width="2.5"/><line x1="80.1" y1="109.3" x2="90.6" y2="126.7" stroke="#1e293b" stroke-width="2.5"/><line x1="151.4" y1="125.7" x2="141.0" y2="108.3" stroke="#1e293b" stroke-width="2.5"/><circle cx="173.0" cy="195.7" r="10" fill="white"/><text x="173.0" y="195.7" text-anchor="middle" dominant-baseline="central" fill="#3b82f6" font-size="13" font-weight="bold" font-family="ui-sans-serif,system-ui,sans-serif">N</text><circle cx="152.1" cy="160.8" r="10" fill="white"/><text x="152.1" y="160.8" text-anchor="middle" dominant-baseline="central" fill="#3b82f6" font-size="13" font-weight="bold" font-family="ui-sans-serif,system-ui,sans-serif">N</text><circle cx="121.3" cy="143.8" r="10" fill="white"/><text x="121.3" y="143.8" text-anchor="middle" dominant-baseline="central" fill="#3b82f6" font-size="13" font-weight="bold" font-family="ui-sans-serif,system-ui,sans-serif">N</text><circle cx="120.7" cy="108.6" r="10" fill="white"/><text x="120.7" y="108.6" text-anchor="middle" dominant-baseline="central" fill="#3b82f6" font-size="13" font-weight="bold" font-family="ui-sans-serif,system-ui,sans-serif">N</text><circle cx="201.9" cy="107.2" r="10" fill="white"/><text x="201.9" y="107.2" text-anchor="middle" dominant-baseline="central" fill="#eab308" font-size="13" font-weight="bold" font-family="ui-sans-serif,system-ui,sans-serif">S</text><circle cx="201.5" cy="86.9" r="10" fill="white"/><text x="201.5" y="86.9" text-anchor="middle" dominant-baseline="central" fill="#ef4444" font-size="13" font-weight="bold" font-family="ui-sans-serif,system-ui,sans-serif">O</text><circle cx="202.2" cy="127.5" r="10" fill="white"/><text x="202.2" y="127.5" text-anchor="middle" dominant-baseline="central" fill="#ef4444" font-size="13" font-weight="bold" font-family="ui-sans-serif,system-ui,sans-serif">O</text><circle cx="222.2" cy="106.9" r="10" fill="white"/><text x="222.2" y="106.9" text-anchor="middle" dominant-baseline="central" fill="#3b82f6" font-size="13" font-weight="bold" font-family="ui-sans-serif,system-ui,sans-serif">N</text></svg>