<svg xmlns="http://www.w3.org/2000/svg" width="100%" height="100%" viewBox="0 0 300 300" style="display:block;"><rect width="100%" height="100%" fill="#ffffff" rx="6"/><circle cx="148.2" cy="183.5" r="6.5" fill="none" stroke="#1e293b" stroke-width="1.5"/><circle cx="179.8" cy="177.4" r="6.5" fill="none" stroke="#1e293b" stroke-width="1.5"/><circle cx="232.5" cy="195.6" r="6.5" fill="none" stroke="#1e293b" stroke-width="1.5"/><line x1="50.0" y1="183.6" x2="67.5" y2="189.6" stroke="#1e293b" stroke-width="2.5"/><line x1="67.5" y1="189.6" x2="71.0" y2="207.9" stroke="#1e293b" stroke-width="2.5"/><line x1="67.5" y1="189.6" x2="81.5" y2="177.5" stroke="#1e293b" stroke-width="2.5"/><line x1="81.5" y1="177.5" x2="99.1" y2="183.5" stroke="#1e293b" stroke-width="2.5"/><line x1="99.1" y1="183.5" x2="113.1" y2="171.4" stroke="#1e293b" stroke-width="2.5"/><line x1="113.1" y1="171.4" x2="130.7" y2="177.4" stroke="#1e293b" stroke-width="2.5"/><line x1="130.7" y1="177.4" x2="134.2" y2="195.7" stroke="#1e293b" stroke-width="2.5"/><line x1="134.2" y1="195.7" x2="151.8" y2="201.7" stroke="#1e293b" stroke-width="2.5"/><line x1="151.8" y1="201.7" x2="165.8" y2="189.5" stroke="#1e293b" stroke-width="2.5"/><line x1="165.8" y1="189.5" x2="183.3" y2="195.6" stroke="#1e293b" stroke-width="2.5"/><line x1="183.3" y1="195.6" x2="197.4" y2="183.4" stroke="#1e293b" stroke-width="2.5"/><line x1="197.4" y1="183.4" x2="214.9" y2="189.5" stroke="#1e293b" stroke-width="2.5"/><line x1="214.9" y1="189.5" x2="229.0" y2="177.3" stroke="#1e293b" stroke-width="2.5"/><line x1="229.0" y1="177.3" x2="246.5" y2="183.4" stroke="#1e293b" stroke-width="2.5"/><line x1="246.5" y1="183.4" x2="250.0" y2="201.6" stroke="#1e293b" stroke-width="2.5"/><line x1="250.0" y1="201.6" x2="236.0" y2="213.8" stroke="#1e293b" stroke-width="2.5"/><line x1="236.0" y1="213.8" x2="218.5" y2="207.7" stroke="#1e293b" stroke-width="2.5"/><line x1="197.4" y1="183.4" x2="193.8" y2="165.2" stroke="#1e293b" stroke-width="2.5"/><line x1="193.8" y1="165.2" x2="176.3" y2="159.1" stroke="#1e293b" stroke-width="2.5"/><line x1="176.3" y1="159.1" x2="172.8" y2="140.9" stroke="#1e293b" stroke-width="2.5"/><line x1="172.8" y1="140.9" x2="155.2" y2="134.8" stroke="#1e293b" stroke-width="2.5"/><line x1="155.2" y1="134.8" x2="151.7" y2="116.6" stroke="#1e293b" stroke-width="2.5"/><line x1="151.7" y1="116.6" x2="165.7" y2="104.4" stroke="#1e293b" stroke-width="2.5"/><line x1="165.7" y1="104.4" x2="162.2" y2="86.2" stroke="#1e293b" stroke-width="2.5"/><line x1="165.7" y1="104.4" x2="183.3" y2="110.5" stroke="#1e293b" stroke-width="2.5"/><line x1="183.3" y1="110.5" x2="186.8" y2="128.7" stroke="#1e293b" stroke-width="2.5"/><line x1="176.3" y1="159.1" x2="162.3" y2="171.3" stroke="#1e293b" stroke-width="2.5"/><line x1="162.3" y1="171.3" x2="144.7" y2="165.2" stroke="#1e293b" stroke-width="2.5"/><line x1="144.7" y1="165.2" x2="130.7" y2="177.4" stroke="#1e293b" stroke-width="2.5"/><line x1="162.3" y1="171.3" x2="165.8" y2="189.5" stroke="#1e293b" stroke-width="2.5"/><line x1="218.5" y1="207.7" x2="214.9" y2="189.5" stroke="#1e293b" stroke-width="2.5"/><line x1="186.8" y1="128.7" x2="172.8" y2="140.9" stroke="#1e293b" stroke-width="2.5"/><circle cx="99.1" cy="183.5" r="10" fill="white"/><text x="99.1" y="183.5" text-anchor="middle" dominant-baseline="central" fill="#ef4444" font-size="13" font-weight="bold" font-family="ui-sans-serif,system-ui,sans-serif">O</text><circle cx="183.3" cy="195.6" r="10" fill="white"/><text x="183.3" y="195.6" text-anchor="middle" dominant-baseline="central" fill="#3b82f6" font-size="13" font-weight="bold" font-family="ui-sans-serif,system-ui,sans-serif">N</text><circle cx="193.8" cy="165.2" r="10" fill="white"/><text x="193.8" y="165.2" text-anchor="middle" dominant-baseline="central" fill="#3b82f6" font-size="13" font-weight="bold" font-family="ui-sans-serif,system-ui,sans-serif">N</text><circle cx="172.8" cy="140.9" r="10" fill="white"/><text x="172.8" y="140.9" text-anchor="middle" dominant-baseline="central" fill="#3b82f6" font-size="13" font-weight="bold" font-family="ui-sans-serif,system-ui,sans-serif">N</text><circle cx="165.7" cy="104.4" r="10" fill="white"/><text x="165.7" y="104.4" text-anchor="middle" dominant-baseline="central" fill="#3b82f6" font-size="13" font-weight="bold" font-family="ui-sans-serif,system-ui,sans-serif">N</text></svg>