<svg xmlns="http://www.w3.org/2000/svg" width="100%" height="100%" viewBox="0 0 300 300" style="display:block;"><rect width="100%" height="100%" fill="#ffffff" rx="6"/><circle cx="92.2" cy="155.0" r="5.9" fill="none" stroke="#1e293b" stroke-width="1.5"/><circle cx="168.0" cy="142.4" r="5.9" fill="none" stroke="#1e293b" stroke-width="1.5"/><line x1="48.1" y1="140.9" x2="56.1" y2="155.6" stroke="#1e293b" stroke-width="2"/><line x1="53.3" y1="138.0" x2="61.3" y2="152.7" stroke="#1e293b" stroke-width="2"/><line x1="58.7" y1="154.2" x2="50.0" y2="168.5" stroke="#1e293b" stroke-width="2.5"/><line x1="58.7" y1="154.2" x2="75.5" y2="154.6" stroke="#1e293b" stroke-width="2.5"/><line x1="75.5" y1="154.6" x2="83.5" y2="169.3" stroke="#1e293b" stroke-width="2.5"/><line x1="83.5" y1="169.3" x2="100.2" y2="169.7" stroke="#1e293b" stroke-width="2.5"/><line x1="100.2" y1="169.7" x2="109.0" y2="155.4" stroke="#1e293b" stroke-width="2.5"/><line x1="109.0" y1="155.4" x2="125.8" y2="155.9" stroke="#1e293b" stroke-width="2.5"/><line x1="125.8" y1="155.9" x2="134.5" y2="141.6" stroke="#1e293b" stroke-width="2.5"/><line x1="134.5" y1="141.6" x2="151.3" y2="142.0" stroke="#1e293b" stroke-width="2.5"/><line x1="151.3" y1="142.0" x2="160.0" y2="127.7" stroke="#1e293b" stroke-width="2.5"/><line x1="160.0" y1="127.7" x2="176.8" y2="128.1" stroke="#1e293b" stroke-width="2.5"/><line x1="176.8" y1="128.1" x2="184.8" y2="142.8" stroke="#1e293b" stroke-width="2.5"/><line x1="184.8" y1="142.8" x2="176.0" y2="157.2" stroke="#1e293b" stroke-width="2.5"/><line x1="176.0" y1="157.2" x2="159.3" y2="156.7" stroke="#1e293b" stroke-width="2.5"/><line x1="176.0" y1="157.2" x2="184.1" y2="171.9" stroke="#1e293b" stroke-width="2.5"/><line x1="184.1" y1="171.9" x2="200.8" y2="172.3" stroke="#1e293b" stroke-width="2.5"/><line x1="200.8" y1="172.3" x2="209.6" y2="158.0" stroke="#1e293b" stroke-width="2.5"/><line x1="209.6" y1="158.0" x2="226.3" y2="158.4" stroke="#1e293b" stroke-width="2.5"/><line x1="226.3" y1="158.4" x2="238.5" y2="146.9" stroke="#1e293b" stroke-width="2.5"/><line x1="238.5" y1="146.9" x2="250.0" y2="159.0" stroke="#1e293b" stroke-width="2.5"/><line x1="250.0" y1="159.0" x2="237.9" y2="170.6" stroke="#1e293b" stroke-width="2.5"/><line x1="209.6" y1="158.0" x2="201.6" y2="143.3" stroke="#1e293b" stroke-width="2.5"/><line x1="204.1" y1="144.8" x2="212.9" y2="130.5" stroke="#1e293b" stroke-width="2"/><line x1="199.0" y1="141.7" x2="207.8" y2="127.4" stroke="#1e293b" stroke-width="2"/><line x1="109.0" y1="155.4" x2="101.0" y2="140.7" stroke="#1e293b" stroke-width="2.5"/><line x1="101.0" y1="140.7" x2="84.2" y2="140.3" stroke="#1e293b" stroke-width="2.5"/><line x1="84.2" y1="140.3" x2="75.5" y2="154.6" stroke="#1e293b" stroke-width="2.5"/><line x1="159.3" y1="156.7" x2="151.3" y2="142.0" stroke="#1e293b" stroke-width="2.5"/><line x1="237.9" y1="170.6" x2="226.3" y2="158.4" stroke="#1e293b" stroke-width="2.5"/><line x1="201.6" y1="143.3" x2="184.8" y2="142.8" stroke="#1e293b" stroke-width="2.5"/><circle cx="50.7" cy="139.4" r="10" fill="white"/><text x="50.7" y="139.4" text-anchor="middle" dominant-baseline="central" fill="#ef4444" font-size="13" font-weight="bold" font-family="ui-sans-serif,system-ui,sans-serif">O</text><circle cx="50.0" cy="168.5" r="10" fill="white"/><text x="50.0" y="168.5" text-anchor="middle" dominant-baseline="central" fill="#ef4444" font-size="13" font-weight="bold" font-family="ui-sans-serif,system-ui,sans-serif">O</text><circle cx="125.8" cy="155.9" r="10" fill="white"/><text x="125.8" y="155.9" text-anchor="middle" dominant-baseline="central" fill="#3b82f6" font-size="13" font-weight="bold" font-family="ui-sans-serif,system-ui,sans-serif">N</text><circle cx="209.6" cy="158.0" r="10" fill="white"/><text x="209.6" y="158.0" text-anchor="middle" dominant-baseline="central" fill="#3b82f6" font-size="13" font-weight="bold" font-family="ui-sans-serif,system-ui,sans-serif">N</text><circle cx="210.3" cy="129.0" r="10" fill="white"/><text x="210.3" y="129.0" text-anchor="middle" dominant-baseline="central" fill="#ef4444" font-size="13" font-weight="bold" font-family="ui-sans-serif,system-ui,sans-serif">O</text></svg>