<svg xmlns="http://www.w3.org/2000/svg" width="100%" height="100%" viewBox="0 0 300 300" style="display:block;"><rect width="100%" height="100%" fill="#ffffff" rx="6"/><circle cx="158.7" cy="133.8" r="6.5" fill="none" stroke="#1e293b" stroke-width="1.5"/><line x1="88.5" y1="182.7" x2="82.8" y2="165.0" stroke="#1e293b" stroke-width="2.5"/><line x1="82.8" y1="165.0" x2="65.1" y2="159.3" stroke="#1e293b" stroke-width="2.5"/><line x1="65.1" y1="159.3" x2="65.0" y2="140.8" stroke="#1e293b" stroke-width="2.5"/><line x1="65.0" y1="140.8" x2="50.0" y2="129.9" stroke="#1e293b" stroke-width="2.5"/><line x1="65.0" y1="140.8" x2="82.7" y2="135.0" stroke="#1e293b" stroke-width="2.5"/><line x1="82.7" y1="135.0" x2="88.4" y2="117.3" stroke="#1e293b" stroke-width="2.5"/><line x1="82.7" y1="135.0" x2="93.6" y2="150.0" stroke="#1e293b" stroke-width="2.5"/><line x1="93.6" y1="150.0" x2="112.2" y2="149.9" stroke="#1e293b" stroke-width="2.5"/><line x1="112.2" y1="149.9" x2="121.5" y2="133.8" stroke="#1e293b" stroke-width="2.5"/><line x1="121.5" y1="133.8" x2="140.1" y2="133.8" stroke="#1e293b" stroke-width="2.5"/><line x1="140.1" y1="133.8" x2="149.3" y2="117.7" stroke="#1e293b" stroke-width="2.5"/><line x1="149.3" y1="117.7" x2="167.9" y2="117.6" stroke="#1e293b" stroke-width="2.5"/><line x1="167.9" y1="117.6" x2="177.3" y2="133.7" stroke="#1e293b" stroke-width="2.5"/><line x1="177.3" y1="133.7" x2="168.0" y2="149.8" stroke="#1e293b" stroke-width="2.5"/><line x1="168.0" y1="149.8" x2="149.4" y2="149.9" stroke="#1e293b" stroke-width="2.5"/><line x1="168.0" y1="149.8" x2="177.3" y2="165.9" stroke="#1e293b" stroke-width="2.5"/><line x1="177.3" y1="165.9" x2="195.9" y2="165.9" stroke="#1e293b" stroke-width="2.5"/><line x1="195.9" y1="165.9" x2="205.2" y2="149.7" stroke="#1e293b" stroke-width="2.5"/><line x1="205.2" y1="149.7" x2="223.8" y2="149.7" stroke="#1e293b" stroke-width="2.5"/><line x1="223.8" y1="149.7" x2="236.9" y2="136.5" stroke="#1e293b" stroke-width="2.5"/><line x1="236.9" y1="136.5" x2="250.0" y2="149.7" stroke="#1e293b" stroke-width="2.5"/><line x1="250.0" y1="149.7" x2="236.9" y2="162.8" stroke="#1e293b" stroke-width="2.5"/><line x1="205.2" y1="149.7" x2="195.8" y2="133.7" stroke="#1e293b" stroke-width="2.5"/><line x1="198.4" y1="135.2" x2="207.7" y2="119.0" stroke="#1e293b" stroke-width="2"/><line x1="193.2" y1="132.2" x2="202.5" y2="116.1" stroke="#1e293b" stroke-width="2"/><line x1="93.6" y1="150.0" x2="82.8" y2="165.0" stroke="#1e293b" stroke-width="2.5"/><line x1="149.4" y1="149.9" x2="140.1" y2="133.8" stroke="#1e293b" stroke-width="2.5"/><line x1="236.9" y1="162.8" x2="223.8" y2="149.7" stroke="#1e293b" stroke-width="2.5"/><line x1="195.8" y1="133.7" x2="177.3" y2="133.7" stroke="#1e293b" stroke-width="2.5"/><circle cx="65.1" cy="159.3" r="10" fill="white"/><text x="65.1" y="159.3" text-anchor="middle" dominant-baseline="central" fill="#3b82f6" font-size="13" font-weight="bold" font-family="ui-sans-serif,system-ui,sans-serif">N</text><circle cx="65.0" cy="140.8" r="10" fill="white"/><text x="65.0" y="140.8" text-anchor="middle" dominant-baseline="central" fill="#3b82f6" font-size="13" font-weight="bold" font-family="ui-sans-serif,system-ui,sans-serif">N</text><circle cx="121.5" cy="133.8" r="10" fill="white"/><text x="121.5" y="133.8" text-anchor="middle" dominant-baseline="central" fill="#ef4444" font-size="13" font-weight="bold" font-family="ui-sans-serif,system-ui,sans-serif">O</text><circle cx="205.2" cy="149.7" r="10" fill="white"/><text x="205.2" y="149.7" text-anchor="middle" dominant-baseline="central" fill="#3b82f6" font-size="13" font-weight="bold" font-family="ui-sans-serif,system-ui,sans-serif">N</text><circle cx="205.1" cy="117.6" r="10" fill="white"/><text x="205.1" y="117.6" text-anchor="middle" dominant-baseline="central" fill="#ef4444" font-size="13" font-weight="bold" font-family="ui-sans-serif,system-ui,sans-serif">O</text></svg>