<svg xmlns="http://www.w3.org/2000/svg" width="100%" height="100%" viewBox="0 0 300 300" style="display:block;"><rect width="100%" height="100%" fill="#ffffff" rx="6"/><circle cx="104.8" cy="152.0" r="5.4" fill="none" stroke="#1e293b" stroke-width="1.5"/><circle cx="175.0" cy="142.6" r="5.4" fill="none" stroke="#1e293b" stroke-width="1.5"/><line x1="50.0" y1="162.2" x2="65.4" y2="163.1" stroke="#1e293b" stroke-width="2.5"/><line x1="65.4" y1="163.1" x2="73.9" y2="150.2" stroke="#1e293b" stroke-width="2.5"/><line x1="73.9" y1="150.2" x2="89.3" y2="151.1" stroke="#1e293b" stroke-width="2.5"/><line x1="89.3" y1="151.1" x2="96.3" y2="164.9" stroke="#1e293b" stroke-width="2.5"/><line x1="96.3" y1="164.9" x2="111.7" y2="165.8" stroke="#1e293b" stroke-width="2.5"/><line x1="111.7" y1="165.8" x2="120.2" y2="152.9" stroke="#1e293b" stroke-width="2.5"/><line x1="120.2" y1="152.9" x2="135.6" y2="153.8" stroke="#1e293b" stroke-width="2.5"/><line x1="135.6" y1="153.8" x2="144.1" y2="140.8" stroke="#1e293b" stroke-width="2.5"/><line x1="144.1" y1="140.8" x2="159.5" y2="141.7" stroke="#1e293b" stroke-width="2.5"/><line x1="159.5" y1="141.7" x2="168.0" y2="128.8" stroke="#1e293b" stroke-width="2.5"/><line x1="168.0" y1="128.8" x2="183.5" y2="129.7" stroke="#1e293b" stroke-width="2.5"/><line x1="183.5" y1="129.7" x2="190.4" y2="143.5" stroke="#1e293b" stroke-width="2.5"/><line x1="190.4" y1="143.5" x2="181.9" y2="156.5" stroke="#1e293b" stroke-width="2.5"/><line x1="181.9" y1="156.5" x2="166.5" y2="155.6" stroke="#1e293b" stroke-width="2.5"/><line x1="181.9" y1="156.5" x2="188.9" y2="170.3" stroke="#1e293b" stroke-width="2.5"/><line x1="188.9" y1="170.3" x2="204.3" y2="171.2" stroke="#1e293b" stroke-width="2.5"/><line x1="204.3" y1="171.2" x2="212.8" y2="158.3" stroke="#1e293b" stroke-width="2.5"/><line x1="212.8" y1="158.3" x2="228.2" y2="159.2" stroke="#1e293b" stroke-width="2.5"/><line x1="228.2" y1="159.2" x2="239.8" y2="148.9" stroke="#1e293b" stroke-width="2.5"/><line x1="239.8" y1="148.9" x2="250.0" y2="160.4" stroke="#1e293b" stroke-width="2.5"/><line x1="250.0" y1="160.4" x2="238.5" y2="170.7" stroke="#1e293b" stroke-width="2.5"/><line x1="212.8" y1="158.3" x2="205.8" y2="144.4" stroke="#1e293b" stroke-width="2.5"/><line x1="208.3" y1="146.1" x2="216.8" y2="133.2" stroke="#1e293b" stroke-width="2"/><line x1="203.3" y1="142.8" x2="211.8" y2="129.9" stroke="#1e293b" stroke-width="2"/><line x1="120.2" y1="152.9" x2="113.2" y2="139.1" stroke="#1e293b" stroke-width="2.5"/><line x1="113.2" y1="139.1" x2="97.8" y2="138.2" stroke="#1e293b" stroke-width="2.5"/><line x1="97.8" y1="138.2" x2="89.3" y2="151.1" stroke="#1e293b" stroke-width="2.5"/><line x1="166.5" y1="155.6" x2="159.5" y2="141.7" stroke="#1e293b" stroke-width="2.5"/><line x1="238.5" y1="170.7" x2="228.2" y2="159.2" stroke="#1e293b" stroke-width="2.5"/><line x1="205.8" y1="144.4" x2="190.4" y2="143.5" stroke="#1e293b" stroke-width="2.5"/><circle cx="65.4" cy="163.1" r="10" fill="white"/><text x="65.4" y="163.1" text-anchor="middle" dominant-baseline="central" fill="#3b82f6" font-size="13" font-weight="bold" font-family="ui-sans-serif,system-ui,sans-serif">N</text><circle cx="135.6" cy="153.8" r="10" fill="white"/><text x="135.6" y="153.8" text-anchor="middle" dominant-baseline="central" fill="#ef4444" font-size="13" font-weight="bold" font-family="ui-sans-serif,system-ui,sans-serif">O</text><circle cx="212.8" cy="158.3" r="10" fill="white"/><text x="212.8" y="158.3" text-anchor="middle" dominant-baseline="central" fill="#3b82f6" font-size="13" font-weight="bold" font-family="ui-sans-serif,system-ui,sans-serif">N</text><circle cx="214.3" cy="131.5" r="10" fill="white"/><text x="214.3" y="131.5" text-anchor="middle" dominant-baseline="central" fill="#ef4444" font-size="13" font-weight="bold" font-family="ui-sans-serif,system-ui,sans-serif">O</text></svg>