<svg xmlns="http://www.w3.org/2000/svg" width="100%" height="100%" viewBox="0 0 300 300" style="display:block;"><rect width="100%" height="100%" fill="#ffffff" rx="6"/><circle cx="178.2" cy="146.3" r="5.2" fill="none" stroke="#1e293b" stroke-width="1.5"/><line x1="50.0" y1="149.7" x2="63.6" y2="155.2" stroke="#1e293b" stroke-width="2.5"/><line x1="63.6" y1="155.2" x2="65.7" y2="169.8" stroke="#1e293b" stroke-width="2.5"/><line x1="63.6" y1="155.2" x2="75.2" y2="146.1" stroke="#1e293b" stroke-width="2.5"/><line x1="75.2" y1="146.1" x2="88.8" y2="151.6" stroke="#1e293b" stroke-width="2.5"/><line x1="88.8" y1="151.6" x2="100.4" y2="142.5" stroke="#1e293b" stroke-width="2.5"/><line x1="100.4" y1="142.5" x2="114.1" y2="148.0" stroke="#1e293b" stroke-width="2.5"/><line x1="111.1" y1="148.4" x2="113.2" y2="163.0" stroke="#1e293b" stroke-width="2"/><line x1="117.0" y1="147.6" x2="119.1" y2="162.2" stroke="#1e293b" stroke-width="2"/><line x1="114.1" y1="148.0" x2="125.7" y2="138.9" stroke="#1e293b" stroke-width="2.5"/><line x1="125.7" y1="138.9" x2="139.3" y2="144.4" stroke="#1e293b" stroke-width="2.5"/><line x1="139.3" y1="144.4" x2="150.9" y2="135.3" stroke="#1e293b" stroke-width="2.5"/><line x1="150.9" y1="135.3" x2="164.5" y2="140.8" stroke="#1e293b" stroke-width="2.5"/><line x1="164.5" y1="140.8" x2="166.6" y2="155.4" stroke="#1e293b" stroke-width="2.5"/><line x1="166.6" y1="155.4" x2="180.3" y2="160.9" stroke="#1e293b" stroke-width="2.5"/><line x1="180.3" y1="160.9" x2="191.8" y2="151.8" stroke="#1e293b" stroke-width="2.5"/><line x1="191.8" y1="151.8" x2="189.8" y2="137.2" stroke="#1e293b" stroke-width="2.5"/><line x1="189.8" y1="137.2" x2="176.1" y2="131.7" stroke="#1e293b" stroke-width="2.5"/><line x1="189.8" y1="137.2" x2="201.4" y2="128.1" stroke="#1e293b" stroke-width="2.5"/><line x1="201.4" y1="128.1" x2="215.0" y2="133.6" stroke="#1e293b" stroke-width="2.5"/><line x1="215.0" y1="133.6" x2="217.1" y2="148.2" stroke="#1e293b" stroke-width="2.5"/><line x1="217.1" y1="148.2" x2="230.7" y2="153.7" stroke="#1e293b" stroke-width="2.5"/><line x1="230.7" y1="153.7" x2="244.3" y2="147.9" stroke="#1e293b" stroke-width="2.5"/><line x1="244.3" y1="147.9" x2="250.0" y2="161.5" stroke="#1e293b" stroke-width="2.5"/><line x1="250.0" y1="161.5" x2="236.5" y2="167.2" stroke="#1e293b" stroke-width="2.5"/><line x1="217.1" y1="148.2" x2="205.5" y2="157.3" stroke="#1e293b" stroke-width="2.5"/><line x1="202.5" y1="157.7" x2="204.6" y2="172.3" stroke="#1e293b" stroke-width="2"/><line x1="208.5" y1="156.9" x2="210.5" y2="171.4" stroke="#1e293b" stroke-width="2"/><line x1="176.1" y1="131.7" x2="164.5" y2="140.8" stroke="#1e293b" stroke-width="2.5"/><line x1="236.5" y1="167.2" x2="230.7" y2="153.7" stroke="#1e293b" stroke-width="2.5"/><line x1="205.5" y1="157.3" x2="191.8" y2="151.8" stroke="#1e293b" stroke-width="2.5"/><circle cx="63.6" cy="155.2" r="10" fill="white"/><text x="63.6" y="155.2" text-anchor="middle" dominant-baseline="central" fill="#3b82f6" font-size="13" font-weight="bold" font-family="ui-sans-serif,system-ui,sans-serif">N</text><circle cx="100.4" cy="142.5" r="10" fill="white"/><text x="100.4" y="142.5" text-anchor="middle" dominant-baseline="central" fill="#3b82f6" font-size="13" font-weight="bold" font-family="ui-sans-serif,system-ui,sans-serif">N</text><circle cx="116.2" cy="162.6" r="10" fill="white"/><text x="116.2" y="162.6" text-anchor="middle" dominant-baseline="central" fill="#ef4444" font-size="13" font-weight="bold" font-family="ui-sans-serif,system-ui,sans-serif">O</text><circle cx="125.7" cy="138.9" r="10" fill="white"/><text x="125.7" y="138.9" text-anchor="middle" dominant-baseline="central" fill="#3b82f6" font-size="13" font-weight="bold" font-family="ui-sans-serif,system-ui,sans-serif">N</text><circle cx="217.1" cy="148.2" r="10" fill="white"/><text x="217.1" y="148.2" text-anchor="middle" dominant-baseline="central" fill="#3b82f6" font-size="13" font-weight="bold" font-family="ui-sans-serif,system-ui,sans-serif">N</text><circle cx="207.6" cy="171.9" r="10" fill="white"/><text x="207.6" y="171.9" text-anchor="middle" dominant-baseline="central" fill="#ef4444" font-size="13" font-weight="bold" font-family="ui-sans-serif,system-ui,sans-serif">O</text></svg>