<svg xmlns="http://www.w3.org/2000/svg" width="100%" height="100%" viewBox="0 0 300 300" style="display:block;"><rect width="100%" height="100%" fill="#ffffff" rx="6"/><circle cx="168.1" cy="135.3" r="6.1" fill="none" stroke="#1e293b" stroke-width="1.5"/><line x1="68.1" y1="180.9" x2="65.4" y2="163.7" stroke="#1e293b" stroke-width="2.5"/><line x1="65.4" y1="163.7" x2="50.0" y2="155.9" stroke="#1e293b" stroke-width="2.5"/><line x1="50.0" y1="155.9" x2="52.7" y2="138.7" stroke="#1e293b" stroke-width="2.5"/><line x1="52.7" y1="138.7" x2="69.8" y2="136.0" stroke="#1e293b" stroke-width="2.5"/><line x1="69.8" y1="136.0" x2="77.7" y2="151.5" stroke="#1e293b" stroke-width="2.5"/><line x1="77.7" y1="151.5" x2="94.8" y2="154.2" stroke="#1e293b" stroke-width="2.5"/><line x1="92.0" y1="155.2" x2="98.3" y2="171.5" stroke="#1e293b" stroke-width="2"/><line x1="97.6" y1="153.1" x2="103.9" y2="169.3" stroke="#1e293b" stroke-width="2"/><line x1="94.8" y1="154.2" x2="105.8" y2="140.7" stroke="#1e293b" stroke-width="2.5"/><line x1="105.8" y1="140.7" x2="122.9" y2="143.4" stroke="#1e293b" stroke-width="2.5"/><line x1="122.9" y1="143.4" x2="133.8" y2="129.9" stroke="#1e293b" stroke-width="2.5"/><line x1="133.8" y1="129.9" x2="151.0" y2="132.6" stroke="#1e293b" stroke-width="2.5"/><line x1="151.0" y1="132.6" x2="161.9" y2="119.1" stroke="#1e293b" stroke-width="2.5"/><line x1="161.9" y1="119.1" x2="179.0" y2="121.8" stroke="#1e293b" stroke-width="2.5"/><line x1="179.0" y1="121.8" x2="185.3" y2="138.0" stroke="#1e293b" stroke-width="2.5"/><line x1="185.3" y1="138.0" x2="174.4" y2="151.5" stroke="#1e293b" stroke-width="2.5"/><line x1="174.4" y1="151.5" x2="157.2" y2="148.8" stroke="#1e293b" stroke-width="2.5"/><line x1="174.4" y1="151.5" x2="180.6" y2="167.7" stroke="#1e293b" stroke-width="2.5"/><line x1="180.6" y1="167.7" x2="197.7" y2="170.4" stroke="#1e293b" stroke-width="2.5"/><line x1="197.7" y1="170.4" x2="208.6" y2="156.9" stroke="#1e293b" stroke-width="2.5"/><line x1="208.6" y1="156.9" x2="225.8" y2="159.7" stroke="#1e293b" stroke-width="2.5"/><line x1="225.8" y1="159.7" x2="239.8" y2="149.4" stroke="#1e293b" stroke-width="2.5"/><line x1="239.8" y1="149.4" x2="250.0" y2="163.5" stroke="#1e293b" stroke-width="2.5"/><line x1="250.0" y1="163.5" x2="236.0" y2="173.7" stroke="#1e293b" stroke-width="2.5"/><line x1="208.6" y1="156.9" x2="202.4" y2="140.7" stroke="#1e293b" stroke-width="2.5"/><line x1="204.8" y1="142.6" x2="215.7" y2="129.1" stroke="#1e293b" stroke-width="2"/><line x1="200.1" y1="138.9" x2="211.0" y2="125.4" stroke="#1e293b" stroke-width="2"/><line x1="77.7" y1="151.5" x2="65.4" y2="163.7" stroke="#1e293b" stroke-width="2.5"/><line x1="157.2" y1="148.8" x2="151.0" y2="132.6" stroke="#1e293b" stroke-width="2.5"/><line x1="236.0" y1="173.7" x2="225.8" y2="159.7" stroke="#1e293b" stroke-width="2.5"/><line x1="202.4" y1="140.7" x2="185.3" y2="138.0" stroke="#1e293b" stroke-width="2.5"/><circle cx="50.0" cy="155.9" r="10" fill="white"/><text x="50.0" y="155.9" text-anchor="middle" dominant-baseline="central" fill="#ef4444" font-size="13" font-weight="bold" font-family="ui-sans-serif,system-ui,sans-serif">O</text><circle cx="101.1" cy="170.4" r="10" fill="white"/><text x="101.1" y="170.4" text-anchor="middle" dominant-baseline="central" fill="#ef4444" font-size="13" font-weight="bold" font-family="ui-sans-serif,system-ui,sans-serif">O</text><circle cx="105.8" cy="140.7" r="10" fill="white"/><text x="105.8" y="140.7" text-anchor="middle" dominant-baseline="central" fill="#3b82f6" font-size="13" font-weight="bold" font-family="ui-sans-serif,system-ui,sans-serif">N</text><circle cx="208.6" cy="156.9" r="10" fill="white"/><text x="208.6" y="156.9" text-anchor="middle" dominant-baseline="central" fill="#3b82f6" font-size="13" font-weight="bold" font-family="ui-sans-serif,system-ui,sans-serif">N</text><circle cx="213.3" cy="127.2" r="10" fill="white"/><text x="213.3" y="127.2" text-anchor="middle" dominant-baseline="central" fill="#ef4444" font-size="13" font-weight="bold" font-family="ui-sans-serif,system-ui,sans-serif">O</text></svg>