<svg xmlns="http://www.w3.org/2000/svg" width="100%" height="100%" viewBox="0 0 300 300" style="display:block;"><rect width="100%" height="100%" fill="#ffffff" rx="6"/><circle cx="160.8" cy="147.7" r="6.3" fill="none" stroke="#1e293b" stroke-width="1.5"/><line x1="50.0" y1="143.9" x2="66.0" y2="151.8" stroke="#1e293b" stroke-width="2.5"/><line x1="66.0" y1="151.8" x2="80.9" y2="141.9" stroke="#1e293b" stroke-width="2.5"/><line x1="80.9" y1="141.9" x2="96.9" y2="149.7" stroke="#1e293b" stroke-width="2.5"/><line x1="96.9" y1="149.7" x2="112.7" y2="141.4" stroke="#1e293b" stroke-width="2.5"/><line x1="112.7" y1="141.4" x2="125.6" y2="153.8" stroke="#1e293b" stroke-width="2.5"/><line x1="125.6" y1="153.8" x2="143.2" y2="150.8" stroke="#1e293b" stroke-width="2.5"/><line x1="143.2" y1="150.8" x2="149.3" y2="134.0" stroke="#1e293b" stroke-width="2.5"/><line x1="149.3" y1="134.0" x2="167.0" y2="130.9" stroke="#1e293b" stroke-width="2.5"/><line x1="167.0" y1="130.9" x2="178.4" y2="144.7" stroke="#1e293b" stroke-width="2.5"/><line x1="178.4" y1="144.7" x2="172.3" y2="161.5" stroke="#1e293b" stroke-width="2.5"/><line x1="172.3" y1="161.5" x2="154.6" y2="164.5" stroke="#1e293b" stroke-width="2.5"/><line x1="172.3" y1="161.5" x2="183.7" y2="175.2" stroke="#1e293b" stroke-width="2.5"/><line x1="183.7" y1="175.2" x2="201.3" y2="172.1" stroke="#1e293b" stroke-width="2.5"/><line x1="201.3" y1="172.1" x2="207.5" y2="155.3" stroke="#1e293b" stroke-width="2.5"/><line x1="207.5" y1="155.3" x2="225.1" y2="152.3" stroke="#1e293b" stroke-width="2.5"/><line x1="225.1" y1="152.3" x2="235.4" y2="137.7" stroke="#1e293b" stroke-width="2.5"/><line x1="235.4" y1="137.7" x2="250.0" y2="148.0" stroke="#1e293b" stroke-width="2.5"/><line x1="250.0" y1="148.0" x2="239.7" y2="162.6" stroke="#1e293b" stroke-width="2.5"/><line x1="207.5" y1="155.3" x2="196.0" y2="141.6" stroke="#1e293b" stroke-width="2.5"/><line x1="198.9" y1="142.6" x2="205.0" y2="125.9" stroke="#1e293b" stroke-width="2"/><line x1="193.2" y1="140.6" x2="199.4" y2="123.8" stroke="#1e293b" stroke-width="2"/><line x1="125.6" y1="153.8" x2="117.7" y2="169.9" stroke="#1e293b" stroke-width="2.5"/><line x1="117.7" y1="169.9" x2="100.0" y2="167.4" stroke="#1e293b" stroke-width="2.5"/><line x1="100.0" y1="167.4" x2="96.9" y2="149.7" stroke="#1e293b" stroke-width="2.5"/><line x1="154.6" y1="164.5" x2="143.2" y2="150.8" stroke="#1e293b" stroke-width="2.5"/><line x1="239.7" y1="162.6" x2="225.1" y2="152.3" stroke="#1e293b" stroke-width="2.5"/><line x1="196.0" y1="141.6" x2="178.4" y2="144.7" stroke="#1e293b" stroke-width="2.5"/><circle cx="66.0" cy="151.8" r="10" fill="white"/><text x="66.0" y="151.8" text-anchor="middle" dominant-baseline="central" fill="#ef4444" font-size="13" font-weight="bold" font-family="ui-sans-serif,system-ui,sans-serif">O</text><circle cx="112.7" cy="141.4" r="10" fill="white"/><text x="112.7" y="141.4" text-anchor="middle" dominant-baseline="central" fill="#3b82f6" font-size="13" font-weight="bold" font-family="ui-sans-serif,system-ui,sans-serif">N</text><circle cx="207.5" cy="155.3" r="10" fill="white"/><text x="207.5" y="155.3" text-anchor="middle" dominant-baseline="central" fill="#3b82f6" font-size="13" font-weight="bold" font-family="ui-sans-serif,system-ui,sans-serif">N</text><circle cx="202.2" cy="124.8" r="10" fill="white"/><text x="202.2" y="124.8" text-anchor="middle" dominant-baseline="central" fill="#ef4444" font-size="13" font-weight="bold" font-family="ui-sans-serif,system-ui,sans-serif">O</text><circle cx="117.7" cy="169.9" r="10" fill="white"/><text x="117.7" y="169.9" text-anchor="middle" dominant-baseline="central" fill="#3b82f6" font-size="13" font-weight="bold" font-family="ui-sans-serif,system-ui,sans-serif">N</text><circle cx="100.0" cy="167.4" r="10" fill="white"/><text x="100.0" y="167.4" text-anchor="middle" dominant-baseline="central" fill="#ef4444" font-size="13" font-weight="bold" font-family="ui-sans-serif,system-ui,sans-serif">O</text></svg>