<svg xmlns="http://www.w3.org/2000/svg" width="100%" height="100%" viewBox="0 0 300 300" style="display:block;"><rect width="100%" height="100%" fill="#ffffff" rx="6"/><circle cx="153.0" cy="146.1" r="6.8" fill="none" stroke="#1e293b" stroke-width="1.5"/><line x1="50.0" y1="149.5" x2="66.2" y2="138.8" stroke="#1e293b" stroke-width="2.5"/><line x1="69.2" y1="138.7" x2="68.1" y2="119.3" stroke="#1e293b" stroke-width="2"/><line x1="63.2" y1="139.0" x2="62.1" y2="119.6" stroke="#1e293b" stroke-width="2"/><line x1="66.2" y1="138.8" x2="83.6" y2="147.6" stroke="#1e293b" stroke-width="2.5"/><line x1="83.6" y1="147.6" x2="100.9" y2="138.7" stroke="#1e293b" stroke-width="2.5"/><line x1="100.9" y1="138.7" x2="114.7" y2="152.4" stroke="#1e293b" stroke-width="2.5"/><line x1="114.7" y1="152.4" x2="133.9" y2="149.2" stroke="#1e293b" stroke-width="2.5"/><line x1="133.9" y1="149.2" x2="140.7" y2="131.1" stroke="#1e293b" stroke-width="2.5"/><line x1="140.7" y1="131.1" x2="159.9" y2="127.9" stroke="#1e293b" stroke-width="2.5"/><line x1="159.9" y1="127.9" x2="172.2" y2="143.0" stroke="#1e293b" stroke-width="2.5"/><line x1="172.2" y1="143.0" x2="165.3" y2="161.2" stroke="#1e293b" stroke-width="2.5"/><line x1="165.3" y1="161.2" x2="146.2" y2="164.3" stroke="#1e293b" stroke-width="2.5"/><line x1="165.3" y1="161.2" x2="177.6" y2="176.2" stroke="#1e293b" stroke-width="2.5"/><line x1="177.6" y1="176.2" x2="196.8" y2="173.1" stroke="#1e293b" stroke-width="2.5"/><line x1="196.8" y1="173.1" x2="203.7" y2="154.9" stroke="#1e293b" stroke-width="2.5"/><line x1="203.7" y1="154.9" x2="222.9" y2="151.8" stroke="#1e293b" stroke-width="2.5"/><line x1="222.9" y1="151.8" x2="234.3" y2="136.0" stroke="#1e293b" stroke-width="2.5"/><line x1="234.3" y1="136.0" x2="250.0" y2="147.4" stroke="#1e293b" stroke-width="2.5"/><line x1="250.0" y1="147.4" x2="238.7" y2="163.1" stroke="#1e293b" stroke-width="2.5"/><line x1="203.7" y1="154.9" x2="191.4" y2="139.9" stroke="#1e293b" stroke-width="2.5"/><line x1="194.2" y1="140.9" x2="201.1" y2="122.7" stroke="#1e293b" stroke-width="2"/><line x1="188.6" y1="138.8" x2="195.5" y2="120.6" stroke="#1e293b" stroke-width="2"/><line x1="114.7" y1="152.4" x2="105.9" y2="169.7" stroke="#1e293b" stroke-width="2.5"/><line x1="105.9" y1="169.7" x2="86.7" y2="166.8" stroke="#1e293b" stroke-width="2.5"/><line x1="86.7" y1="166.8" x2="73.0" y2="180.6" stroke="#1e293b" stroke-width="2.5"/><line x1="86.7" y1="166.8" x2="83.6" y2="147.6" stroke="#1e293b" stroke-width="2.5"/><line x1="146.2" y1="164.3" x2="133.9" y2="149.2" stroke="#1e293b" stroke-width="2.5"/><line x1="238.7" y1="163.1" x2="222.9" y2="151.8" stroke="#1e293b" stroke-width="2.5"/><line x1="191.4" y1="139.9" x2="172.2" y2="143.0" stroke="#1e293b" stroke-width="2.5"/><circle cx="65.1" cy="119.4" r="10" fill="white"/><text x="65.1" y="119.4" text-anchor="middle" dominant-baseline="central" fill="#ef4444" font-size="13" font-weight="bold" font-family="ui-sans-serif,system-ui,sans-serif">O</text><circle cx="100.9" cy="138.7" r="10" fill="white"/><text x="100.9" y="138.7" text-anchor="middle" dominant-baseline="central" fill="#eab308" font-size="13" font-weight="bold" font-family="ui-sans-serif,system-ui,sans-serif">S</text><circle cx="203.7" cy="154.9" r="10" fill="white"/><text x="203.7" y="154.9" text-anchor="middle" dominant-baseline="central" fill="#3b82f6" font-size="13" font-weight="bold" font-family="ui-sans-serif,system-ui,sans-serif">N</text><circle cx="198.3" cy="121.7" r="10" fill="white"/><text x="198.3" y="121.7" text-anchor="middle" dominant-baseline="central" fill="#ef4444" font-size="13" font-weight="bold" font-family="ui-sans-serif,system-ui,sans-serif">O</text><circle cx="105.9" cy="169.7" r="10" fill="white"/><text x="105.9" y="169.7" text-anchor="middle" dominant-baseline="central" fill="#3b82f6" font-size="13" font-weight="bold" font-family="ui-sans-serif,system-ui,sans-serif">N</text></svg>