<svg xmlns="http://www.w3.org/2000/svg" width="100%" height="100%" viewBox="0 0 300 300" style="display:block;"><rect width="100%" height="100%" fill="#ffffff" rx="6"/><circle cx="171.2" cy="143.3" r="5.6" fill="none" stroke="#1e293b" stroke-width="1.5"/><line x1="50.0" y1="139.2" x2="63.1" y2="148.4" stroke="#1e293b" stroke-width="2.5"/><line x1="60.1" y1="148.1" x2="58.7" y2="164.1" stroke="#1e293b" stroke-width="2"/><line x1="66.1" y1="148.6" x2="64.7" y2="164.6" stroke="#1e293b" stroke-width="2"/><line x1="63.1" y1="148.4" x2="77.6" y2="141.6" stroke="#1e293b" stroke-width="2.5"/><line x1="77.6" y1="141.6" x2="90.7" y2="150.7" stroke="#1e293b" stroke-width="2.5"/><line x1="90.7" y1="150.7" x2="105.8" y2="145.5" stroke="#1e293b" stroke-width="2.5"/><line x1="105.8" y1="145.5" x2="115.5" y2="158.2" stroke="#1e293b" stroke-width="2.5"/><line x1="115.5" y1="158.2" x2="131.5" y2="157.9" stroke="#1e293b" stroke-width="2.5"/><line x1="131.5" y1="157.9" x2="139.2" y2="143.9" stroke="#1e293b" stroke-width="2.5"/><line x1="139.2" y1="143.9" x2="155.2" y2="143.6" stroke="#1e293b" stroke-width="2.5"/><line x1="155.2" y1="143.6" x2="162.9" y2="129.6" stroke="#1e293b" stroke-width="2.5"/><line x1="162.9" y1="129.6" x2="178.9" y2="129.3" stroke="#1e293b" stroke-width="2.5"/><line x1="178.9" y1="129.3" x2="187.2" y2="143.0" stroke="#1e293b" stroke-width="2.5"/><line x1="187.2" y1="143.0" x2="179.4" y2="157.0" stroke="#1e293b" stroke-width="2.5"/><line x1="179.4" y1="157.0" x2="163.4" y2="157.3" stroke="#1e293b" stroke-width="2.5"/><line x1="179.4" y1="157.0" x2="187.7" y2="170.7" stroke="#1e293b" stroke-width="2.5"/><line x1="187.7" y1="170.7" x2="203.7" y2="170.3" stroke="#1e293b" stroke-width="2.5"/><line x1="203.7" y1="170.3" x2="211.4" y2="156.3" stroke="#1e293b" stroke-width="2.5"/><line x1="211.4" y1="156.3" x2="227.4" y2="156.0" stroke="#1e293b" stroke-width="2.5"/><line x1="227.4" y1="156.0" x2="238.5" y2="144.5" stroke="#1e293b" stroke-width="2.5"/><line x1="238.5" y1="144.5" x2="250.0" y2="155.6" stroke="#1e293b" stroke-width="2.5"/><line x1="250.0" y1="155.6" x2="239.0" y2="167.1" stroke="#1e293b" stroke-width="2.5"/><line x1="211.4" y1="156.3" x2="203.2" y2="142.6" stroke="#1e293b" stroke-width="2.5"/><line x1="205.8" y1="144.1" x2="213.5" y2="130.1" stroke="#1e293b" stroke-width="2"/><line x1="200.5" y1="141.2" x2="208.2" y2="127.2" stroke="#1e293b" stroke-width="2"/><line x1="115.5" y1="158.2" x2="106.3" y2="171.4" stroke="#1e293b" stroke-width="2.5"/><line x1="106.3" y1="171.4" x2="91.0" y2="166.7" stroke="#1e293b" stroke-width="2.5"/><line x1="91.0" y1="166.7" x2="90.7" y2="150.7" stroke="#1e293b" stroke-width="2.5"/><line x1="163.4" y1="157.3" x2="155.2" y2="143.6" stroke="#1e293b" stroke-width="2.5"/><line x1="239.0" y1="167.1" x2="227.4" y2="156.0" stroke="#1e293b" stroke-width="2.5"/><line x1="203.2" y1="142.6" x2="187.2" y2="143.0" stroke="#1e293b" stroke-width="2.5"/><circle cx="61.7" cy="164.3" r="10" fill="white"/><text x="61.7" y="164.3" text-anchor="middle" dominant-baseline="central" fill="#ef4444" font-size="13" font-weight="bold" font-family="ui-sans-serif,system-ui,sans-serif">O</text><circle cx="77.6" cy="141.6" r="10" fill="white"/><text x="77.6" y="141.6" text-anchor="middle" dominant-baseline="central" fill="#3b82f6" font-size="13" font-weight="bold" font-family="ui-sans-serif,system-ui,sans-serif">N</text><circle cx="105.8" cy="145.5" r="10" fill="white"/><text x="105.8" y="145.5" text-anchor="middle" dominant-baseline="central" fill="#3b82f6" font-size="13" font-weight="bold" font-family="ui-sans-serif,system-ui,sans-serif">N</text><circle cx="139.2" cy="143.9" r="10" fill="white"/><text x="139.2" y="143.9" text-anchor="middle" dominant-baseline="central" fill="#ef4444" font-size="13" font-weight="bold" font-family="ui-sans-serif,system-ui,sans-serif">O</text><circle cx="211.4" cy="156.3" r="10" fill="white"/><text x="211.4" y="156.3" text-anchor="middle" dominant-baseline="central" fill="#3b82f6" font-size="13" font-weight="bold" font-family="ui-sans-serif,system-ui,sans-serif">N</text><circle cx="210.9" cy="128.6" r="10" fill="white"/><text x="210.9" y="128.6" text-anchor="middle" dominant-baseline="central" fill="#ef4444" font-size="13" font-weight="bold" font-family="ui-sans-serif,system-ui,sans-serif">O</text><circle cx="91.0" cy="166.7" r="10" fill="white"/><text x="91.0" y="166.7" text-anchor="middle" dominant-baseline="central" fill="#eab308" font-size="13" font-weight="bold" font-family="ui-sans-serif,system-ui,sans-serif">S</text></svg>