<svg xmlns="http://www.w3.org/2000/svg" width="100%" height="100%" viewBox="0 0 300 300" style="display:block;"><rect width="100%" height="100%" fill="#ffffff" rx="6"/><circle cx="169.9" cy="136.6" r="6.0" fill="none" stroke="#1e293b" stroke-width="1.5"/><line x1="50.0" y1="177.6" x2="65.2" y2="170.0" stroke="#1e293b" stroke-width="2.5"/><line x1="63.5" y1="172.5" x2="77.7" y2="181.9" stroke="#1e293b" stroke-width="2"/><line x1="66.8" y1="167.5" x2="81.1" y2="176.9" stroke="#1e293b" stroke-width="2"/><line x1="65.2" y1="170.0" x2="66.2" y2="153.0" stroke="#1e293b" stroke-width="2.5"/><line x1="66.2" y1="153.0" x2="81.5" y2="145.4" stroke="#1e293b" stroke-width="2.5"/><line x1="81.5" y1="145.4" x2="84.3" y2="128.6" stroke="#1e293b" stroke-width="2.5"/><line x1="84.3" y1="128.6" x2="101.1" y2="126.1" stroke="#1e293b" stroke-width="2.5"/><line x1="101.1" y1="126.1" x2="108.7" y2="141.3" stroke="#1e293b" stroke-width="2.5"/><line x1="108.7" y1="141.3" x2="125.5" y2="144.1" stroke="#1e293b" stroke-width="2.5"/><line x1="125.5" y1="144.1" x2="136.3" y2="131.0" stroke="#1e293b" stroke-width="2.5"/><line x1="136.3" y1="131.0" x2="153.1" y2="133.8" stroke="#1e293b" stroke-width="2.5"/><line x1="153.1" y1="133.8" x2="163.9" y2="120.6" stroke="#1e293b" stroke-width="2.5"/><line x1="163.9" y1="120.6" x2="180.7" y2="123.4" stroke="#1e293b" stroke-width="2.5"/><line x1="180.7" y1="123.4" x2="186.7" y2="139.4" stroke="#1e293b" stroke-width="2.5"/><line x1="186.7" y1="139.4" x2="175.9" y2="152.5" stroke="#1e293b" stroke-width="2.5"/><line x1="175.9" y1="152.5" x2="159.1" y2="149.7" stroke="#1e293b" stroke-width="2.5"/><line x1="175.9" y1="152.5" x2="181.9" y2="168.5" stroke="#1e293b" stroke-width="2.5"/><line x1="181.9" y1="168.5" x2="198.7" y2="171.3" stroke="#1e293b" stroke-width="2.5"/><line x1="198.7" y1="171.3" x2="209.5" y2="158.1" stroke="#1e293b" stroke-width="2.5"/><line x1="209.5" y1="158.1" x2="226.3" y2="160.9" stroke="#1e293b" stroke-width="2.5"/><line x1="226.3" y1="160.9" x2="240.1" y2="151.0" stroke="#1e293b" stroke-width="2.5"/><line x1="240.1" y1="151.0" x2="250.0" y2="164.9" stroke="#1e293b" stroke-width="2.5"/><line x1="250.0" y1="164.9" x2="236.2" y2="174.8" stroke="#1e293b" stroke-width="2.5"/><line x1="209.5" y1="158.1" x2="203.5" y2="142.2" stroke="#1e293b" stroke-width="2.5"/><line x1="205.8" y1="144.1" x2="216.7" y2="130.9" stroke="#1e293b" stroke-width="2"/><line x1="201.2" y1="140.3" x2="212.0" y2="127.1" stroke="#1e293b" stroke-width="2"/><line x1="108.7" y1="141.3" x2="96.6" y2="153.2" stroke="#1e293b" stroke-width="2.5"/><line x1="96.6" y1="153.2" x2="81.5" y2="145.4" stroke="#1e293b" stroke-width="2.5"/><line x1="159.1" y1="149.7" x2="153.1" y2="133.8" stroke="#1e293b" stroke-width="2.5"/><line x1="236.2" y1="174.8" x2="226.3" y2="160.9" stroke="#1e293b" stroke-width="2.5"/><line x1="203.5" y1="142.2" x2="186.7" y2="139.4" stroke="#1e293b" stroke-width="2.5"/><circle cx="79.4" cy="179.4" r="10" fill="white"/><text x="79.4" y="179.4" text-anchor="middle" dominant-baseline="central" fill="#ef4444" font-size="13" font-weight="bold" font-family="ui-sans-serif,system-ui,sans-serif">O</text><circle cx="66.2" cy="153.0" r="10" fill="white"/><text x="66.2" y="153.0" text-anchor="middle" dominant-baseline="central" fill="#3b82f6" font-size="13" font-weight="bold" font-family="ui-sans-serif,system-ui,sans-serif">N</text><circle cx="84.3" cy="128.6" r="10" fill="white"/><text x="84.3" y="128.6" text-anchor="middle" dominant-baseline="central" fill="#3b82f6" font-size="13" font-weight="bold" font-family="ui-sans-serif,system-ui,sans-serif">N</text><circle cx="101.1" cy="126.1" r="10" fill="white"/><text x="101.1" y="126.1" text-anchor="middle" dominant-baseline="central" fill="#3b82f6" font-size="13" font-weight="bold" font-family="ui-sans-serif,system-ui,sans-serif">N</text><circle cx="136.3" cy="131.0" r="10" fill="white"/><text x="136.3" y="131.0" text-anchor="middle" dominant-baseline="central" fill="#ef4444" font-size="13" font-weight="bold" font-family="ui-sans-serif,system-ui,sans-serif">O</text><circle cx="209.5" cy="158.1" r="10" fill="white"/><text x="209.5" y="158.1" text-anchor="middle" dominant-baseline="central" fill="#3b82f6" font-size="13" font-weight="bold" font-family="ui-sans-serif,system-ui,sans-serif">N</text><circle cx="214.3" cy="129.0" r="10" fill="white"/><text x="214.3" y="129.0" text-anchor="middle" dominant-baseline="central" fill="#ef4444" font-size="13" font-weight="bold" font-family="ui-sans-serif,system-ui,sans-serif">O</text><circle cx="96.6" cy="153.2" r="10" fill="white"/><text x="96.6" y="153.2" text-anchor="middle" dominant-baseline="central" fill="#eab308" font-size="13" font-weight="bold" font-family="ui-sans-serif,system-ui,sans-serif">S</text></svg>