<svg xmlns="http://www.w3.org/2000/svg" width="100%" height="100%" viewBox="0 0 300 300" style="display:block;"><rect width="100%" height="100%" fill="#ffffff" rx="6"/><circle cx="127.3" cy="119.9" r="6.9" fill="none" stroke="#1e293b" stroke-width="1.5"/><circle cx="69.3" cy="108.1" r="6.9" fill="none" stroke="#1e293b" stroke-width="1.5"/><circle cx="159.7" cy="109.0" r="6.9" fill="none" stroke="#1e293b" stroke-width="1.5"/><line x1="158.7" y1="213.4" x2="152.4" y2="194.7" stroke="#1e293b" stroke-width="2.5"/><line x1="152.4" y1="194.7" x2="165.4" y2="179.9" stroke="#1e293b" stroke-width="2.5"/><line x1="165.4" y1="179.9" x2="159.2" y2="161.2" stroke="#1e293b" stroke-width="2.5"/><line x1="159.2" y1="161.2" x2="139.8" y2="157.3" stroke="#1e293b" stroke-width="2.5"/><line x1="139.8" y1="157.3" x2="133.6" y2="138.6" stroke="#1e293b" stroke-width="2.5"/><line x1="133.6" y1="138.6" x2="114.2" y2="134.7" stroke="#1e293b" stroke-width="2.5"/><line x1="114.2" y1="134.7" x2="107.9" y2="116.0" stroke="#1e293b" stroke-width="2.5"/><line x1="107.9" y1="116.0" x2="88.6" y2="112.0" stroke="#1e293b" stroke-width="2.5"/><line x1="88.6" y1="112.0" x2="75.6" y2="126.8" stroke="#1e293b" stroke-width="2.5"/><line x1="75.6" y1="126.8" x2="56.2" y2="122.9" stroke="#1e293b" stroke-width="2.5"/><line x1="56.2" y1="122.9" x2="50.0" y2="104.2" stroke="#1e293b" stroke-width="2.5"/><line x1="50.0" y1="104.2" x2="63.0" y2="89.4" stroke="#1e293b" stroke-width="2.5"/><line x1="63.0" y1="89.4" x2="82.3" y2="93.3" stroke="#1e293b" stroke-width="2.5"/><line x1="107.9" y1="116.0" x2="121.0" y2="101.2" stroke="#1e293b" stroke-width="2.5"/><line x1="121.0" y1="101.2" x2="140.3" y2="105.1" stroke="#1e293b" stroke-width="2.5"/><line x1="140.3" y1="105.1" x2="153.4" y2="90.3" stroke="#1e293b" stroke-width="2.5"/><line x1="153.4" y1="90.3" x2="172.7" y2="94.2" stroke="#1e293b" stroke-width="2.5"/><line x1="172.7" y1="94.2" x2="179.0" y2="112.9" stroke="#1e293b" stroke-width="2.5"/><line x1="179.0" y1="112.9" x2="198.3" y2="116.8" stroke="#1e293b" stroke-width="2.5"/><line x1="195.5" y1="117.8" x2="201.8" y2="136.5" stroke="#1e293b" stroke-width="2"/><line x1="201.2" y1="115.9" x2="207.4" y2="134.6" stroke="#1e293b" stroke-width="2"/><line x1="198.3" y1="116.8" x2="211.4" y2="102.1" stroke="#1e293b" stroke-width="2.5"/><line x1="211.4" y1="102.1" x2="230.7" y2="106.0" stroke="#1e293b" stroke-width="2.5"/><line x1="230.7" y1="106.0" x2="234.6" y2="86.6" stroke="#1e293b" stroke-width="2.5"/><line x1="230.7" y1="106.0" x2="226.8" y2="125.3" stroke="#1e293b" stroke-width="2.5"/><line x1="230.7" y1="106.0" x2="250.0" y2="109.9" stroke="#1e293b" stroke-width="2.5"/><line x1="179.0" y1="112.9" x2="165.9" y2="127.7" stroke="#1e293b" stroke-width="2.5"/><line x1="165.9" y1="127.7" x2="146.6" y2="123.8" stroke="#1e293b" stroke-width="2.5"/><line x1="139.8" y1="157.3" x2="126.8" y2="172.1" stroke="#1e293b" stroke-width="2.5"/><line x1="126.8" y1="172.1" x2="133.0" y2="190.7" stroke="#1e293b" stroke-width="2.5"/><line x1="133.0" y1="190.7" x2="152.4" y2="194.7" stroke="#1e293b" stroke-width="2.5"/><line x1="146.6" y1="123.8" x2="133.6" y2="138.6" stroke="#1e293b" stroke-width="2.5"/><line x1="82.3" y1="93.3" x2="88.6" y2="112.0" stroke="#1e293b" stroke-width="2.5"/><line x1="146.6" y1="123.8" x2="140.3" y2="105.1" stroke="#1e293b" stroke-width="2.5"/><circle cx="152.4" cy="194.7" r="10" fill="white"/><text x="152.4" y="194.7" text-anchor="middle" dominant-baseline="central" fill="#3b82f6" font-size="13" font-weight="bold" font-family="ui-sans-serif,system-ui,sans-serif">N</text><circle cx="139.8" cy="157.3" r="10" fill="white"/><text x="139.8" y="157.3" text-anchor="middle" dominant-baseline="central" fill="#3b82f6" font-size="13" font-weight="bold" font-family="ui-sans-serif,system-ui,sans-serif">N</text><circle cx="114.2" cy="134.7" r="10" fill="white"/><text x="114.2" y="134.7" text-anchor="middle" dominant-baseline="central" fill="#3b82f6" font-size="13" font-weight="bold" font-family="ui-sans-serif,system-ui,sans-serif">N</text><circle cx="121.0" cy="101.2" r="10" fill="white"/><text x="121.0" y="101.2" text-anchor="middle" dominant-baseline="central" fill="#3b82f6" font-size="13" font-weight="bold" font-family="ui-sans-serif,system-ui,sans-serif">N</text><circle cx="204.6" cy="135.5" r="10" fill="white"/><text x="204.6" y="135.5" text-anchor="middle" dominant-baseline="central" fill="#ef4444" font-size="13" font-weight="bold" font-family="ui-sans-serif,system-ui,sans-serif">O</text><circle cx="211.4" cy="102.1" r="10" fill="white"/><text x="211.4" y="102.1" text-anchor="middle" dominant-baseline="central" fill="#3b82f6" font-size="13" font-weight="bold" font-family="ui-sans-serif,system-ui,sans-serif">N</text></svg>