<svg xmlns="http://www.w3.org/2000/svg" width="100%" height="100%" viewBox="0 0 300 300" style="display:block;"><rect width="100%" height="100%" fill="#ffffff" rx="6"/><circle cx="125.1" cy="123.2" r="6.7" fill="none" stroke="#1e293b" stroke-width="1.5"/><circle cx="68.8" cy="113.6" r="6.7" fill="none" stroke="#1e293b" stroke-width="1.5"/><circle cx="156.1" cy="111.7" r="6.7" fill="none" stroke="#1e293b" stroke-width="1.5"/><line x1="120.6" y1="206.2" x2="132.8" y2="191.5" stroke="#1e293b" stroke-width="2.5"/><line x1="132.8" y1="191.5" x2="151.6" y2="194.7" stroke="#1e293b" stroke-width="2.5"/><line x1="132.8" y1="191.5" x2="126.2" y2="173.6" stroke="#1e293b" stroke-width="2.5"/><line x1="126.2" y1="173.6" x2="138.4" y2="158.9" stroke="#1e293b" stroke-width="2.5"/><line x1="138.4" y1="158.9" x2="131.7" y2="141.1" stroke="#1e293b" stroke-width="2.5"/><line x1="131.7" y1="141.1" x2="113.0" y2="137.9" stroke="#1e293b" stroke-width="2.5"/><line x1="113.0" y1="137.9" x2="106.3" y2="120.0" stroke="#1e293b" stroke-width="2.5"/><line x1="106.3" y1="120.0" x2="87.5" y2="116.8" stroke="#1e293b" stroke-width="2.5"/><line x1="87.5" y1="116.8" x2="75.4" y2="131.5" stroke="#1e293b" stroke-width="2.5"/><line x1="75.4" y1="131.5" x2="56.6" y2="128.2" stroke="#1e293b" stroke-width="2.5"/><line x1="56.6" y1="128.2" x2="50.0" y2="110.4" stroke="#1e293b" stroke-width="2.5"/><line x1="50.0" y1="110.4" x2="62.1" y2="95.7" stroke="#1e293b" stroke-width="2.5"/><line x1="62.1" y1="95.7" x2="80.9" y2="98.9" stroke="#1e293b" stroke-width="2.5"/><line x1="106.3" y1="120.0" x2="118.5" y2="105.3" stroke="#1e293b" stroke-width="2.5"/><line x1="118.5" y1="105.3" x2="137.3" y2="108.5" stroke="#1e293b" stroke-width="2.5"/><line x1="137.3" y1="108.5" x2="149.5" y2="93.8" stroke="#1e293b" stroke-width="2.5"/><line x1="149.5" y1="93.8" x2="168.3" y2="97.0" stroke="#1e293b" stroke-width="2.5"/><line x1="168.3" y1="97.0" x2="174.9" y2="114.9" stroke="#1e293b" stroke-width="2.5"/><line x1="174.9" y1="114.9" x2="193.7" y2="118.1" stroke="#1e293b" stroke-width="2.5"/><line x1="193.7" y1="118.1" x2="205.8" y2="103.5" stroke="#1e293b" stroke-width="2.5"/><line x1="205.8" y1="103.5" x2="224.6" y2="106.7" stroke="#1e293b" stroke-width="2.5"/><line x1="224.6" y1="106.7" x2="231.2" y2="124.5" stroke="#1e293b" stroke-width="2.5"/><line x1="231.2" y1="124.5" x2="250.0" y2="127.7" stroke="#1e293b" stroke-width="2.5"/><line x1="231.2" y1="124.5" x2="219.1" y2="139.2" stroke="#1e293b" stroke-width="2.5"/><line x1="219.1" y1="139.2" x2="200.3" y2="136.0" stroke="#1e293b" stroke-width="2.5"/><line x1="174.9" y1="114.9" x2="162.7" y2="129.6" stroke="#1e293b" stroke-width="2.5"/><line x1="162.7" y1="129.6" x2="143.9" y2="126.4" stroke="#1e293b" stroke-width="2.5"/><line x1="143.9" y1="126.4" x2="131.7" y2="141.1" stroke="#1e293b" stroke-width="2.5"/><line x1="80.9" y1="98.9" x2="87.5" y2="116.8" stroke="#1e293b" stroke-width="2.5"/><line x1="143.9" y1="126.4" x2="137.3" y2="108.5" stroke="#1e293b" stroke-width="2.5"/><line x1="200.3" y1="136.0" x2="193.7" y2="118.1" stroke="#1e293b" stroke-width="2.5"/><circle cx="138.4" cy="158.9" r="10" fill="white"/><text x="138.4" y="158.9" text-anchor="middle" dominant-baseline="central" fill="#3b82f6" font-size="13" font-weight="bold" font-family="ui-sans-serif,system-ui,sans-serif">N</text><circle cx="113.0" cy="137.9" r="10" fill="white"/><text x="113.0" y="137.9" text-anchor="middle" dominant-baseline="central" fill="#3b82f6" font-size="13" font-weight="bold" font-family="ui-sans-serif,system-ui,sans-serif">N</text><circle cx="118.5" cy="105.3" r="10" fill="white"/><text x="118.5" y="105.3" text-anchor="middle" dominant-baseline="central" fill="#3b82f6" font-size="13" font-weight="bold" font-family="ui-sans-serif,system-ui,sans-serif">N</text><circle cx="193.7" cy="118.1" r="10" fill="white"/><text x="193.7" y="118.1" text-anchor="middle" dominant-baseline="central" fill="#3b82f6" font-size="13" font-weight="bold" font-family="ui-sans-serif,system-ui,sans-serif">N</text><circle cx="231.2" cy="124.5" r="10" fill="white"/><text x="231.2" y="124.5" text-anchor="middle" dominant-baseline="central" fill="#3b82f6" font-size="13" font-weight="bold" font-family="ui-sans-serif,system-ui,sans-serif">N</text></svg>